<svg width="21" height="21" viewBox="0 0 21 21" fill="none" xmlns="http://www.w3.org/2000/svg">
<path d="M0.0987087 10.002C0.0355707 10.1543 0.000513591 10.3211 0 10.4961L4.66402e-07 10.5039C0.000988632 10.8355 0.127999 11.1669 0.381032 11.4199L9.58009 20.619C10.0881 21.127 10.9119 21.127 11.4199 20.619C11.928 20.1109 11.928 19.2872 11.4199 18.7792L4.44169 11.8009H19.6991C20.4175 11.8009 21 11.2185 21 10.5C21 9.78151 20.4175 9.19906 19.6991 9.19906L4.44169 9.19906L11.4199 2.22085C11.928 1.7128 11.928 0.889088 11.4199 0.381038C10.9119 -0.127013 10.0881 -0.127013 9.58009 0.381038L0.381669 9.57946L0.378276 9.58286C0.254915 9.70695 0.161726 9.84971 0.0987087 10.002Z" fill="white"/>
</svg>
