<svg width="21" height="21" viewBox="0 0 21 21" fill="none" xmlns="http://www.w3.org/2000/svg">
<path d="M20.9013 10.998C20.9644 10.8457 20.9995 10.6789 21 10.5039V10.4961C20.999 10.1645 20.872 9.83313 20.619 9.58009L11.4199 0.381037C10.9119 -0.127012 10.0881 -0.127012 9.5801 0.381037C9.07205 0.889087 9.07205 1.7128 9.5801 2.22085L16.5583 9.19906L1.30094 9.19906C0.582453 9.19906 -3.52408e-07 9.78151 0 10.5C-5.79712e-07 11.2185 0.582452 11.8009 1.30094 11.8009H16.5583L9.5801 18.7792C9.07205 19.2872 9.07205 20.1109 9.5801 20.619C10.0881 21.127 10.9119 21.127 11.4199 20.619L20.6183 11.4205L20.6217 11.4171C20.7451 11.2931 20.8383 11.1503 20.9013 10.998Z" fill="white"/>
</svg>
