<svg width="244" height="134" viewBox="0 0 244 134" fill="none" xmlns="http://www.w3.org/2000/svg">
<path d="M228.967 93.8286H15.6493C12.8917 93.8286 10.6592 91.6012 10.6592 88.8569V37.1544C10.6592 34.4101 12.8917 32.1826 15.6493 32.1826H228.967C231.724 32.1826 233.957 34.41 233.957 37.1544V88.8569C233.957 91.6012 231.724 93.8286 228.967 93.8286Z" fill="#096767" stroke="black"/>
<path d="M216.369 81.8427V101.326H24.3096V81.8427H216.369Z" fill="#237978" stroke="black"/>
<path fill-rule="evenodd" clip-rule="evenodd" d="M17.2808 116.701L12.4116 132.772L16.269 132.52L28.0486 116.667L17.2808 116.701Z" fill="black"/>
<path fill-rule="evenodd" clip-rule="evenodd" d="M226.999 117.304L231.868 133.375L228.01 133.123L216.231 117.27L226.999 117.304Z" fill="black"/>
<path fill-rule="evenodd" clip-rule="evenodd" d="M29.1875 57.2713C29.1875 57.2713 29.8199 56.5781 37.0287 58.0276C44.2376 59.4772 55.0408 55.7991 56.5952 56.9134C58.1495 58.0276 57.8966 79.4559 62.0069 84.939C66.1172 90.4221 51.6995 82.418 38.4199 88.0271C25.1404 93.6363 35.8905 71.5778 35.8905 71.5778L29.1875 57.2713Z" fill="black"/>
<path fill-rule="evenodd" clip-rule="evenodd" d="M21.4913 51.0854C21.4913 51.0854 19.3258 67.3881 32.444 82.7878C45.5622 98.1881 40.3281 70.8337 32.7261 60.3753C25.1247 49.9175 21.6198 46.9842 21.4913 51.0854Z" fill="black"/>
<path fill-rule="evenodd" clip-rule="evenodd" d="M219.702 75.4213C219.574 75.0652 219.07 69.9382 219.386 63.5097C219.702 57.0812 210.129 64.4878 196.874 62.1232C189.39 60.7877 177.869 58.2024 179.927 64.266C182.076 70.598 176.701 81.6606 180.496 82.2279C184.29 82.7951 204.336 79.1397 213.125 83.0472C221.915 86.9547 221.536 80.5262 219.702 75.4213Z" fill="black"/>
<path d="M17.0111 115.166L17.0111 115.166L0.662088 70.385C0.662087 70.385 0.662085 70.385 0.662083 70.385C0.0456752 68.6965 1.2666 66.8973 3.07449 66.8431L3.0745 66.8431L19.7952 66.3421C19.7952 66.3421 19.7953 66.3421 19.7953 66.3421C20.8519 66.3108 21.8253 66.9069 22.2744 67.8582L22.2744 67.8583L34.1994 93.1146L34.1994 93.1147C34.8036 94.3935 36.0948 95.2071 37.5108 95.2042H37.5109L206.759 94.8349C208.143 94.832 209.407 94.0489 210.022 92.8118L223.231 66.2605C223.231 66.2604 223.231 66.2604 223.231 66.2604C223.697 65.3237 224.674 64.7484 225.724 64.7946L225.746 64.2951L225.724 64.7946L240.963 65.4645C242.734 65.5426 243.928 67.294 243.354 68.9598L227.244 115.737C226.875 116.806 225.864 117.524 224.728 117.521L19.4949 116.904C18.3817 116.901 17.3905 116.206 17.0111 115.166Z" fill="#096767" stroke="black"/>
<path fill-rule="evenodd" clip-rule="evenodd" d="M178.143 46.6453L175.866 67.8972C175.866 67.8972 198.019 73.2068 206.096 66.2625L206.915 47.5535L178.143 46.6453Z" fill="#151390"/>
<path fill-rule="evenodd" clip-rule="evenodd" d="M187.8 18.9771C187.8 18.9771 187.566 24.0916 184.573 25.8971C181.857 27.5352 187.611 37.0404 193.801 36.4734C197.189 36.163 197.983 26.9281 197.983 26.9281C197.983 26.9281 195.247 26.4011 196.258 22.2429L187.8 18.9771Z" fill="#C26E5E"/>
<path fill-rule="evenodd" clip-rule="evenodd" d="M192.761 24.1775C188.748 23.6938 185.852 21.0641 185.446 16.7017C184.28 16.8868 184.005 13.8572 184.33 12.884C184.655 11.9094 185.716 12.4793 185.716 12.4793C185.716 12.4793 185.804 12.2482 185.866 11.9956C187.619 4.829 192.529 5.11323 192.529 5.11323C201.551 5.58168 199.437 14.762 198.922 17.1974C198.406 19.6331 196.64 24.6446 192.761 24.1775Z" fill="#C26E5E"/>
<path fill-rule="evenodd" clip-rule="evenodd" d="M206.106 53.4623C204.775 52.922 203.059 51.212 201.007 48.3799C199.485 46.2798 198.335 44.3105 198.323 44.2909L198.542 44.1643C198.587 44.2423 203.122 51.9786 206.201 53.2288L206.106 53.4623Z" fill="#864A56"/>
<mask id="mask0_142_8788" style="mask-type:alpha" maskUnits="userSpaceOnUse" x="170" y="25" width="39" height="40">
<path fill-rule="evenodd" clip-rule="evenodd" d="M170.18 25.6415H208.369V64.5095H170.18V25.6415Z" fill="white"/>
</mask>
<g mask="url(#mask0_142_8788)">
<path fill-rule="evenodd" clip-rule="evenodd" d="M184.849 25.6415C184.849 25.6415 173.612 26.7019 171.294 38.3354C168.977 49.9688 168.699 63.6909 186.557 64.4013C204.414 65.1117 205.932 62.1175 205.92 61.4632C205.907 60.809 206.223 50.0318 207.678 41.8387C209.132 33.6455 209.258 29.2339 198.129 26.5238C198.129 26.5238 193.196 33.0783 184.849 25.6415Z" fill="#151390"/>
</g>
<path fill-rule="evenodd" clip-rule="evenodd" d="M197.441 32.4964C195.773 33.0164 197.103 28.4793 196.445 27.4129C195.787 26.3465 195.188 23.9245 196.135 22.7762C197.081 21.6279 198.918 18.5794 199.177 16.0427C199.435 13.5066 198.959 12.33 198.959 12.33C198.959 12.33 197.103 13.0024 195.471 11.4892C194.482 10.571 192.535 9.88777 191.071 8.58884C191.059 9.15102 190.888 10.0239 189.992 10.3081C188.633 10.7392 188.716 12.5745 185.864 12.2726C185.864 12.2726 184.44 11.5251 184.33 13.3106C184.221 15.0967 184.755 16.3433 185.553 16.4265C185.553 16.4265 186.554 16.7391 186.304 18.0941C186.055 19.4485 187.847 20.3775 187.546 22.1132C187.246 23.8489 186.406 24.3877 187.006 25.9438C187.607 27.4999 187.809 29.3187 187.078 30.8811C186.347 32.4435 182.357 29.937 180.793 31.1572C179.229 32.3767 179.093 31.6311 177.121 30.5471C175.15 29.4631 173.035 30.9517 173.05 28.8946C173.072 25.9482 171.818 23.9737 173.382 22.6187C174.945 21.2636 174.737 19.93 175.43 18.3305C176.418 16.0503 178.313 15.8946 178.654 14.1331C178.993 12.3709 179.789 10.3207 181.951 8.95375C184.378 7.42038 185.756 3.10259 188.816 4.32211C188.946 4.37442 189.07 4.42925 189.187 4.48597C189.235 3.83934 189.617 2.89839 191.496 3.1215C194.304 3.4549 199.319 3.92127 200.121 6.52039C200.923 9.11888 200.723 11.1848 201.793 13.7171C202.862 16.2494 200.99 17.249 201.859 18.9147C202.729 20.5805 204.4 22.3798 204.267 24.1123C204.133 25.8449 203.264 28.0444 204.735 29.8437C206.205 31.6425 204.133 32.9754 202.461 32.8424C200.79 32.7088 199.109 31.9771 197.441 32.4964Z" fill="#711515"/>
<path fill-rule="evenodd" clip-rule="evenodd" d="M193.39 30.4255L194.718 24.3751C194.718 24.3751 194.655 23.3668 196.236 23.4298C197.817 23.4928 209.01 23.3037 209.01 23.3037C209.01 23.3037 209.895 23.1777 210.148 23.997C210.401 24.8163 207.113 38.5556 207.113 38.5556C207.113 38.5556 207.176 39.5009 206.101 39.5009C205.026 39.5009 191.809 40.0051 191.809 40.0051L193.39 30.4255Z" fill="#56ACF6"/>
<path fill-rule="evenodd" clip-rule="evenodd" d="M186.93 40.3561C186.93 40.3561 190.607 36.179 191.61 34.3887C192.613 32.5985 192.613 31.5542 192.53 30.7337C192.446 29.9132 192.446 28.9435 193.115 28.7943C193.783 28.6451 193.867 29.0181 193.95 29.9132C194.034 30.8083 193.95 31.7034 195.455 31.1813C196.959 30.6591 200.637 29.3911 201.055 30.4353C201.473 31.4796 200.553 31.6287 200.553 31.6287C200.553 31.6287 201.222 31.7034 201.389 32.2255C201.556 32.7477 201.389 33.1207 200.888 33.3444C200.386 33.5682 200.135 33.6427 200.135 33.6427C200.135 33.6427 201.138 33.4936 201.389 34.2395C201.64 34.9854 201.222 35.3584 200.804 35.5076C200.804 35.5076 201.342 35.5938 201.473 36.179C201.556 36.5519 201.055 36.7756 200.47 36.9994C199.679 37.302 197.294 37.3724 195.288 38.6404C193.282 39.9085 188.434 48.1883 186.01 50.7244C183.586 53.2606 181.162 46.6965 181.162 46.6965C181.162 46.6965 184.171 42.8922 186.93 40.3561Z" fill="#C26E5E"/>
<path fill-rule="evenodd" clip-rule="evenodd" d="M196.409 32.8381L196.359 32.6556L200.538 31.5366L200.588 31.7191L196.409 32.8381Z" fill="black"/>
<path fill-rule="evenodd" clip-rule="evenodd" d="M196.409 34.7778L196.359 34.5952L200.538 33.4763L200.588 33.6588L196.409 34.7778Z" fill="black"/>
<path fill-rule="evenodd" clip-rule="evenodd" d="M196.916 36.7206L196.866 36.5381L201.046 35.4192L201.095 35.6017L196.916 36.7206Z" fill="black"/>
<mask id="mask1_142_8788" style="mask-type:alpha" maskUnits="userSpaceOnUse" x="204" y="28" width="9" height="26">
<path fill-rule="evenodd" clip-rule="evenodd" d="M204.31 28.603H212.446V53.496H204.31V28.603Z" fill="white"/>
</mask>
<g mask="url(#mask1_142_8788)">
<path fill-rule="evenodd" clip-rule="evenodd" d="M206.426 49.9397C206.426 49.9397 207.011 46.956 207.262 43.2264C207.512 39.4969 207.429 37.8559 207.094 37.5574C206.761 37.2591 204.42 37.3336 204.42 36.1402C204.42 34.9467 206.091 35.3196 206.091 35.3196C206.091 35.3196 204.336 35.0213 204.504 34.1262C204.671 33.2311 205.673 33.3803 205.673 33.3803C205.673 33.3803 204.086 33.0819 204.336 32.1122C204.587 31.1425 206.091 31.5154 206.091 31.5154C206.091 31.5154 204.671 31.2917 205.256 30.322C205.841 29.3523 206.844 29.949 208.014 30.2474C209.184 30.5458 209.268 30.6204 209.351 30.1728C209.435 29.7252 209.268 28.5318 210.187 28.6064C211.107 28.6809 211.274 28.9794 211.274 30.6204C211.274 32.2614 211.525 33.7532 211.775 35.2451C212.026 36.7369 212.11 38.4525 211.942 41.2125C211.775 43.9724 214.115 52.1029 209.936 53.2965C205.758 54.4899 206.426 49.9397 206.426 49.9397Z" fill="#C26E5E"/>
</g>
<path fill-rule="evenodd" clip-rule="evenodd" d="M208.213 35.8312L205.755 35.305L205.794 35.1201L208.252 35.6462L208.213 35.8312Z" fill="black"/>
<path fill-rule="evenodd" clip-rule="evenodd" d="M208.162 33.9955L205.703 33.4693L205.744 33.2844L208.202 33.8106L208.162 33.9955Z" fill="black"/>
<path fill-rule="evenodd" clip-rule="evenodd" d="M208.277 32.0238L205.819 31.4976L205.859 31.3127L208.317 31.8389L208.277 32.0238Z" fill="black"/>
<path fill-rule="evenodd" clip-rule="evenodd" d="M210.535 30.8216L209.323 30.5605L209.363 30.3757L210.575 30.6368L210.535 30.8216Z" fill="black"/>
<path fill-rule="evenodd" clip-rule="evenodd" d="M190.379 78.6284C190.379 78.6284 193.083 79.7971 193.408 79.3425C193.734 78.8881 190.933 81.7125 190.933 81.7125L188.913 80.5762L190.379 78.6284Z" fill="#C26E5E"/>
<path fill-rule="evenodd" clip-rule="evenodd" d="M190.253 78.6284L188.678 80.722L190.855 81.9468L190.905 81.8954L190.838 81.8289C190.905 81.8954 190.905 81.8954 190.905 81.8954L190.937 81.8638C190.957 81.8433 190.987 81.8132 191.025 81.775C191.101 81.6987 191.209 81.5902 191.338 81.4614C191.595 81.2038 191.935 80.8652 192.265 80.5408C192.594 80.2162 192.913 79.9066 193.129 79.7068C193.159 79.6793 193.186 79.6541 193.211 79.6315C193.283 79.6104 193.348 79.5743 193.391 79.5139M193.12 79.459C193.172 79.4126 193.214 79.3766 193.244 79.3545C193.256 79.3454 193.271 79.3356 193.284 79.3285C193.29 79.3255 193.303 79.319 193.32 79.3163C193.334 79.3141 193.389 79.3095 193.42 79.3614C193.433 79.3821 193.435 79.4023 193.435 79.414C193.435 79.4261 193.432 79.4358 193.431 79.4418C193.427 79.4537 193.422 79.4637 193.419 79.4701C193.412 79.4837 193.402 79.4987 193.391 79.5139M193.12 79.459C193.107 79.4613 193.094 79.4632 193.08 79.4648C192.986 79.4751 192.863 79.468 192.717 79.4457C192.426 79.4012 192.063 79.2998 191.706 79.1825C191.351 79.0657 191.004 78.9345 190.747 78.8324C190.618 78.7814 190.512 78.7378 190.438 78.7069C190.401 78.6914 190.372 78.6792 190.352 78.6708C190.342 78.6667 190.335 78.6635 190.33 78.6613L190.324 78.6589L190.322 78.658C190.322 78.658 190.322 78.658 190.284 78.7448L190.322 78.658L190.253 78.6284M190.316 78.8609C190.33 78.8668 190.346 78.8737 190.365 78.8813C190.44 78.9126 190.547 78.9566 190.677 79.0081C190.936 79.111 191.286 79.2437 191.647 79.3621C192.007 79.4803 192.381 79.5858 192.689 79.6326C192.764 79.6441 192.837 79.6524 192.906 79.6562C192.695 79.8548 192.417 80.1256 192.131 80.4063C191.801 80.7312 191.461 81.0702 191.203 81.328C191.075 81.4569 190.966 81.5655 190.89 81.6419C190.863 81.6693 190.84 81.6926 190.822 81.7111L188.959 80.6632L190.316 78.8609ZM193.251 79.3815C193.252 79.381 193.252 79.381 193.251 79.3815V79.3815Z" fill="black"/>
<path fill-rule="evenodd" clip-rule="evenodd" d="M212.04 80.0595C212.04 80.0595 216.013 82.3644 212.854 85.968C209.694 89.5715 198.522 87.1042 198.522 87.1042L198.229 85.6758C198.229 85.6758 209.466 80.2543 212.04 80.0595Z" fill="#484849"/>
<path fill-rule="evenodd" clip-rule="evenodd" d="M210.776 87.2368C210.776 87.2368 209.349 84.3434 208.697 84.4084C208.046 84.4733 200.994 84.8381 200.285 84.7044L197.948 85.6419L198.361 87.1283C198.361 87.1283 207.056 89.1564 210.776 87.2368Z" fill="#484849"/>
<path fill-rule="evenodd" clip-rule="evenodd" d="M200.448 85.4765C200.448 85.4765 213.608 81.6782 219.732 76.841C225.855 72.0038 229.406 67.2966 225.953 62.0049C222.5 56.7132 214.39 60.7388 210.481 62.4594C206.572 64.18 193.754 66.6133 187.639 66.5979C181.523 66.5824 173.315 66.1278 169.048 64.8618C164.78 63.5957 157.973 61.6803 155.888 66.8421C153.803 72.0038 156.247 77.0683 159.83 78.7889C163.413 80.5095 174.455 84.2104 180.123 83.8533L185.79 83.4962C185.79 83.4962 188.233 80.8017 187.582 76.8735L191.002 79.3408C191.002 79.3408 192.956 79.3083 193.673 79.0486C194.39 78.7889 198.364 88.3009 200.448 85.4765Z" fill="#552690"/>
<path fill-rule="evenodd" clip-rule="evenodd" d="M196.958 85.9314C196.958 85.9314 191.225 88.0415 189.857 88.9181C188.489 89.7947 185.655 90.5413 184.287 89.5999C182.919 88.6584 183.733 83.9836 183.733 83.9836C183.733 83.9836 188.326 82.9446 188.847 82.2304C189.369 81.5163 193.538 79.1464 193.538 79.1464L196.958 85.9314Z" fill="#C26E5E"/>
<path fill-rule="evenodd" clip-rule="evenodd" d="M184.232 84.3539C184.232 84.3539 183.936 83.5945 183.024 83.7568C182.112 83.9192 173.611 82.9777 171.168 82.2959C168.725 81.6141 163.546 86.4513 165.793 89.86C168.04 93.2688 171.103 91.6456 173.871 91.4184C176.64 91.1911 182.015 91.9703 183.22 91.5806C184.425 91.1911 185.63 90.4768 185.663 89.6328C185.695 88.7887 184.232 84.3539 184.232 84.3539Z" fill="#484849"/>
<path fill-rule="evenodd" clip-rule="evenodd" d="M171.792 82.7393C171.792 82.7393 168.194 84.5024 167.543 86.9371C166.891 89.3719 167.193 91.321 167.193 91.321C167.193 91.321 163.779 89.7174 165.726 85.9087C167.673 82.0999 170.733 81.787 171.792 82.3493C172.852 82.9116 171.792 82.7393 171.792 82.7393Z" fill="#484849"/>
<path fill-rule="evenodd" clip-rule="evenodd" d="M172.203 82.658C172.203 82.658 173.679 84.9903 173.874 86.6784C173.874 86.6784 173.744 87.003 175.373 86.9706C177.001 86.9381 184.594 85.2775 184.594 85.2775C184.594 85.2775 186.228 89.1771 185.637 90.184C185.047 91.191 173.874 89.2756 173.874 89.2756C173.874 89.2756 173.418 89.0158 173.125 89.2431C172.832 89.4704 171.318 91.5518 169.241 91.9719C169.241 91.9719 172.474 90.2495 172.734 87.9769C172.995 85.7045 172.203 82.658 172.203 82.658Z" fill="#484849"/>
<path d="M213.256 63.5557L195.277 77.6908L191.384 79.3248L187.263 76.7661L173.109 67.8421L172.974 68.0551L187.128 76.9796L191.362 79.6077L195.406 77.9099L213.413 63.7536L213.256 63.5557Z" fill="black"/>
<path fill-rule="evenodd" clip-rule="evenodd" d="M186.834 75.4159C186.834 75.4159 189.765 76.2275 190.58 77.6234C191.394 79.0194 191.133 81.4217 188.723 82.4282C186.313 83.4345 185.335 84.2786 185.954 82.6879C186.573 81.0971 187.713 78.1753 186.834 75.4159Z" fill="#552690"/>
<path fill-rule="evenodd" clip-rule="evenodd" d="M195.369 77.2667C195.369 77.2667 195.663 80.5132 197.454 83.0453C199.246 85.5776 200.842 85.8373 200.255 86.4541C199.669 87.0709 198.757 87.3631 198.171 88.1423C197.584 88.9214 197.617 88.8889 196.249 87.2657C194.881 85.6424 191.884 82.039 191.819 78.8251C191.819 78.8251 195.109 76.1954 195.369 77.2667Z" fill="#552690"/>
<path d="M195.446 13.6455L195.687 13.7225L195.664 13.7977C195.645 13.8591 195.624 13.9293 195.601 14.0071C195.536 14.2296 195.471 14.4686 195.41 14.7146C195.343 14.988 195.285 15.2532 195.24 15.5036L195.227 15.5777C195.117 16.2145 195.101 16.7008 195.199 16.9622L195.205 16.9771C195.766 18.3613 195.004 19.0632 193.404 18.5717L193.355 18.5564L193.432 18.3163C194.874 18.776 195.452 18.2581 194.971 17.0715C194.838 16.7449 194.858 16.1907 194.991 15.4589C195.037 15.2029 195.096 14.9327 195.164 14.6544C195.219 14.4325 195.277 14.2163 195.336 14.0125L195.358 13.9366C195.371 13.8914 195.384 13.8488 195.396 13.8088L195.427 13.7077L195.446 13.6455Z" fill="black"/>
<path d="M189.19 23.2902L189.314 23.0703L189.359 23.0949L189.4 23.1168C189.463 23.1497 189.534 23.186 189.614 23.2249L189.648 23.2417C189.915 23.3713 190.21 23.501 190.525 23.622C191.249 23.9002 191.964 24.09 192.63 24.1516C192.932 24.1795 193.217 24.1802 193.485 24.1516L193.538 24.1455L193.569 24.3957C193.267 24.4328 192.945 24.434 192.607 24.4026C191.915 24.3386 191.178 24.143 190.434 23.8572C190.112 23.7335 189.811 23.601 189.537 23.4684L189.434 23.4175C189.39 23.3956 189.349 23.3746 189.311 23.3546L189.239 23.3169L189.19 23.2902Z" fill="black"/>
<path fill-rule="evenodd" clip-rule="evenodd" d="M193.794 20.5421C192.6 20.5421 191.701 19.9973 191.658 19.9713C191.569 19.9164 191.542 19.7999 191.597 19.711C191.652 19.6223 191.769 19.5947 191.858 19.6496C191.876 19.6604 192.932 20.2933 194.207 20.1392C194.31 20.1267 194.405 20.2005 194.418 20.3041C194.43 20.4078 194.356 20.502 194.252 20.5146C194.096 20.5336 193.942 20.5421 193.794 20.5421Z" fill="black"/>
<path fill-rule="evenodd" clip-rule="evenodd" d="M194.287 18.7269C194.031 18.7269 193.712 18.6771 193.314 18.5502L193.391 18.31C194.132 18.5464 194.68 18.5272 194.933 18.2556C195.148 18.0245 195.147 17.6018 194.929 17.0653C194.782 16.7013 194.818 16.0111 195.038 15.0135C195.198 14.2835 195.403 13.6456 195.405 13.6393L195.646 13.7163C195.424 14.4053 194.905 16.3334 195.164 16.9708C195.492 17.7812 195.32 18.21 195.118 18.4271C194.974 18.582 194.723 18.7269 194.287 18.7269Z" fill="black"/>
<path fill-rule="evenodd" clip-rule="evenodd" d="M193.524 12.8397C193.488 12.8495 193.449 12.8534 193.409 12.8504C193.019 12.8217 191.901 12.7672 191.414 12.8594C190.956 12.9462 190.33 13.3505 190.127 13.499C189.973 13.6124 189.755 13.5795 189.641 13.4254C189.527 13.2713 189.56 13.0545 189.715 12.9409C189.749 12.9154 190.576 12.3126 191.284 12.1783C191.96 12.0502 193.399 12.1545 193.46 12.1591C193.652 12.1732 193.795 12.3395 193.781 12.5304C193.77 12.6814 193.663 12.8026 193.524 12.8397Z" fill="black"/>
<path fill-rule="evenodd" clip-rule="evenodd" d="M198.718 14.9557C198.654 14.9296 198.597 14.8836 198.557 14.82C198.431 14.6169 198.021 14.0394 197.646 13.8102C197.245 13.5658 196.224 13.2488 195.865 13.1472C195.684 13.096 195.579 12.9092 195.631 12.7294C195.682 12.5496 195.869 12.4451 196.05 12.4961C196.106 12.512 197.438 12.8901 198 13.2332C198.591 13.5939 199.113 14.4288 199.135 14.4642C199.233 14.6232 199.184 14.8317 199.024 14.9299C198.929 14.9888 198.815 14.9946 198.718 14.9557Z" fill="black"/>
<path fill-rule="evenodd" clip-rule="evenodd" d="M192.383 15.042C192.383 15.2466 192.217 15.4126 192.011 15.4126C191.806 15.4126 191.64 15.2466 191.64 15.042C191.64 14.8373 191.806 14.6714 192.011 14.6714C192.217 14.6714 192.383 14.8373 192.383 15.042Z" fill="black"/>
<path fill-rule="evenodd" clip-rule="evenodd" d="M197.145 15.4609C197.145 15.6656 196.979 15.8315 196.773 15.8315C196.568 15.8315 196.402 15.6656 196.402 15.4609C196.402 15.2563 196.568 15.0903 196.773 15.0903C196.979 15.0903 197.145 15.2563 197.145 15.4609Z" fill="black"/>
<path fill-rule="evenodd" clip-rule="evenodd" d="M91.1008 79.3949L89.5252 81.4886L91.702 82.7133L91.7529 82.6619L91.6855 82.5955C91.7529 82.6619 91.7529 82.6619 91.7529 82.6619L91.7843 82.6304C91.8047 82.6098 91.8346 82.5797 91.8725 82.5416C91.9485 82.4652 92.0566 82.3568 92.1853 82.228C92.4427 81.9704 92.7825 81.6318 93.112 81.3074C93.4418 80.9827 93.7606 80.6732 93.9762 80.4734C94.0059 80.4458 94.0334 80.4207 94.0584 80.3981C94.1304 80.3769 94.1949 80.3408 94.2382 80.2805M93.967 80.2256C94.0192 80.1792 94.0617 80.1432 94.0915 80.1211C94.1038 80.112 94.1179 80.1021 94.1318 80.095C94.1377 80.092 94.1509 80.0856 94.1677 80.0828C94.1812 80.0806 94.236 80.0761 94.2679 80.1279C94.2806 80.1487 94.2824 80.1688 94.2822 80.1806C94.2821 80.1926 94.2798 80.2024 94.2781 80.2084C94.2748 80.2203 94.2698 80.2303 94.2664 80.2366C94.2591 80.2502 94.2491 80.2653 94.2382 80.2805M93.967 80.2256C93.9548 80.2278 93.9415 80.2298 93.927 80.2314C93.8337 80.2416 93.7107 80.2345 93.5646 80.2123C93.2733 80.1678 92.9108 80.0663 92.5539 79.9491C92.198 79.8322 91.8518 79.7011 91.5943 79.599C91.4656 79.548 91.3593 79.5043 91.2851 79.4734C91.248 79.458 91.2191 79.4458 91.1993 79.4374C91.1895 79.4332 91.182 79.43 91.177 79.4278L91.1713 79.4254L91.1695 79.4246C91.1695 79.4246 91.1695 79.4246 91.1317 79.5113L91.1695 79.4246L91.1008 79.3949M91.163 79.6274C91.1773 79.6334 91.1936 79.6403 91.2119 79.6479C91.2869 79.6791 91.3944 79.7232 91.5242 79.7747C91.7838 79.8775 92.1338 80.0102 92.4945 80.1287C92.8543 80.2469 93.2288 80.3523 93.536 80.3991C93.6117 80.4107 93.6846 80.4189 93.7531 80.4227C93.5421 80.6214 93.2639 80.8921 92.9787 81.1728C92.6487 81.4977 92.3085 81.8368 92.0509 82.0945C91.9221 82.2234 91.8139 82.3321 91.7379 82.4085C91.7106 82.4358 91.6875 82.4591 91.669 82.4777L89.8066 81.4298L91.163 79.6274ZM94.0988 80.148C94.0991 80.1475 94.099 80.1475 94.0988 80.148V80.148Z" fill="black"/>
<path fill-rule="evenodd" clip-rule="evenodd" d="M112.886 80.826C112.886 80.826 116.86 83.131 113.701 86.7345C110.541 90.338 99.3686 87.8708 99.3686 87.8708L99.0754 86.4423C99.0754 86.4423 110.313 81.0209 112.886 80.826Z" fill="#787878"/>
<path fill-rule="evenodd" clip-rule="evenodd" d="M112.891 80.826C112.891 80.826 114.455 81.1506 114.944 82.9362C115.432 84.7218 114.355 86.8011 112.776 87.4982C112.776 87.4982 114.791 83.0415 111.252 81.2033L112.891 80.826Z" fill="#787878"/>
<path fill-rule="evenodd" clip-rule="evenodd" d="M111.623 88.0034C111.623 88.0034 110.196 85.1101 109.544 85.175C108.893 85.2399 101.841 85.6047 101.132 85.471L98.795 86.4085L99.2082 87.8949C99.2082 87.8949 107.903 89.923 111.623 88.0034Z" fill="#787878"/>
<path fill-rule="evenodd" clip-rule="evenodd" d="M99.0372 86.4706C99.0372 86.4706 114.873 83.0981 120.997 78.2609C127.121 73.4238 130.671 68.7165 127.218 63.4249C123.766 58.1332 115.655 62.1587 111.746 63.8793C107.837 65.5999 95.0197 68.0332 88.9042 68.0178C82.7886 68.0023 74.5801 67.5478 70.313 66.2817C66.0457 65.0156 59.2384 63.1002 57.1535 68.262C55.0686 73.4238 57.512 78.4883 61.095 80.2088C64.6779 81.9294 75.7202 85.6303 81.3879 85.2733L87.0557 84.9161C87.0557 84.9161 96.3029 85.153 95.6515 81.2249C95.6515 81.2249 94.6581 80.2934 95.3747 80.0337C95.3747 80.5278 96.4195 88.2099 99.0372 86.4706Z" fill="#484849"/>
<path fill-rule="evenodd" clip-rule="evenodd" d="M99.0371 86.4706C97.7283 87.775 86.2894 91.3429 84.6936 90.3656C83.0978 89.3882 84.0477 84.535 84.0477 84.535C84.0477 84.535 83.3363 85.9075 83.9442 85.1661C84.5521 84.4246 95.484 79.5133 95.484 79.5133L99.0371 86.4706Z" fill="#ECAFA3"/>
<path fill-rule="evenodd" clip-rule="evenodd" d="M85.3066 85.1148C85.3066 85.1148 85.0109 84.3554 84.0988 84.5177C83.1868 84.6801 74.6851 83.7386 72.2421 83.0569C69.7992 82.3751 64.6201 87.2122 66.8675 90.6209C69.1149 94.0297 72.177 92.4065 74.9457 92.1793C77.7144 91.952 83.0891 92.7312 84.2943 92.3416C85.4995 91.952 86.7047 91.2378 86.7373 90.3937C86.7698 89.5497 85.3066 85.1148 85.3066 85.1148Z" fill="#787878"/>
<path fill-rule="evenodd" clip-rule="evenodd" d="M73.0506 83.4245C73.0506 83.4245 74.5261 85.7568 74.7215 87.4449C74.7215 87.4449 74.5912 87.7696 76.2198 87.7372C77.8485 87.7047 85.4415 86.044 85.4415 86.044C85.4415 86.044 87.0748 89.9436 86.4844 90.9505C85.8941 91.9575 74.7215 90.0421 74.7215 90.0421C74.7215 90.0421 74.2655 89.7824 73.9723 90.0096C73.6791 90.2369 72.1655 92.3183 70.0885 92.7385C70.0885 92.7385 73.3209 91.016 73.5814 88.7435C73.842 86.471 73.0506 83.4245 73.0506 83.4245Z" fill="#787878"/>
<path fill-rule="evenodd" clip-rule="evenodd" d="M83.7791 85.7922C83.7791 85.7922 83.6814 87.9997 84.1048 89.2334C84.5283 90.467 84.88 91.543 84.1504 91.4108C83.4208 91.2786 82.639 86.3765 83.0624 85.9545C83.4859 85.5325 83.7465 85.4026 83.7791 85.7922Z" fill="#787878"/>
<path fill-rule="evenodd" clip-rule="evenodd" d="M82.5787 86.0496C82.5787 86.0496 82.481 88.2571 82.9044 89.4908C83.3279 90.7245 83.6795 91.8004 82.95 91.6682C82.2204 91.5361 81.4386 86.6339 81.8621 86.2119C82.2855 85.7899 82.5461 85.66 82.5787 86.0496Z" fill="#787878"/>
<path fill-rule="evenodd" clip-rule="evenodd" d="M78.3045 86.1289C78.3045 86.1289 78.2068 88.148 78.6302 89.2764C79.0537 90.4047 79.4054 91.3889 78.6758 91.268C77.9462 91.147 77.1644 86.6633 77.5879 86.2773C78.0113 85.8913 78.2719 85.7725 78.3045 86.1289Z" fill="#787878"/>
<path fill-rule="evenodd" clip-rule="evenodd" d="M76.6744 86.3737C76.6744 86.3737 76.5767 88.2584 77.0001 89.3116C77.4236 90.3648 77.7752 91.2834 77.0457 91.1706C76.3161 91.0577 75.5343 86.8726 75.9578 86.5123C76.3812 86.1519 76.6418 86.0411 76.6744 86.3737Z" fill="#787878"/>
<path fill-rule="evenodd" clip-rule="evenodd" d="M75.4918 86.2353C75.4918 86.2353 75.1265 88.087 75.3956 89.1895C75.6647 90.292 75.8819 91.2511 75.1758 91.0361C74.4697 90.8212 74.2922 86.5677 74.7627 86.271C75.2332 85.9743 75.5069 85.9014 75.4918 86.2353Z" fill="#787878"/>
<path fill-rule="evenodd" clip-rule="evenodd" d="M81.0597 86.192C81.0597 86.192 81.189 88.3979 81.7368 89.582C82.2847 90.766 82.7449 91.8004 82.0055 91.7433C81.2663 91.6862 79.9855 86.8895 80.3634 86.4266C80.7414 85.9635 80.9873 85.8078 81.0597 86.192Z" fill="#787878"/>
<path fill-rule="evenodd" clip-rule="evenodd" d="M80.4116 86.1506C80.4116 86.1506 79.9714 88.3163 80.1977 89.6005C80.424 90.8847 80.6039 92.0021 79.9037 91.7586C79.2035 91.5152 79.1944 86.5516 79.6784 86.2002C80.1624 85.8487 80.44 85.7607 80.4116 86.1506Z" fill="#787878"/>
<path d="M114.104 64.3223L96.1239 78.4574L92.2315 80.0914L88.11 77.5327L73.9569 68.6087L73.8216 68.8218L87.9755 77.7462L92.2089 80.3743L96.2536 78.6765L114.26 64.5202L114.104 64.3223Z" fill="black"/>
<path fill-rule="evenodd" clip-rule="evenodd" d="M86.7793 16.8816C86.7793 16.8816 86.5459 21.9962 83.5524 23.8016C80.8363 25.4397 86.5905 34.9449 92.7806 34.378C96.169 34.0675 96.9632 24.8326 96.9632 24.8326C96.9632 24.8326 94.2272 24.3056 95.2378 20.1474L86.7793 16.8816Z" fill="#ECAFA3"/>
<path fill-rule="evenodd" clip-rule="evenodd" d="M91.7537 22.084C87.7408 21.6003 84.8446 18.9706 84.4391 14.6082C83.2725 14.7933 82.9973 11.7637 83.3222 10.7905C83.6474 9.81591 84.709 10.3858 84.709 10.3858C84.709 10.3858 84.7971 10.1547 84.8589 9.90206C86.6119 2.73549 91.5218 3.01972 91.5218 3.01972C100.544 3.48817 98.43 12.6684 97.9145 15.1039C97.399 17.5396 95.633 22.5511 91.7537 22.084Z" fill="#ECAFA3"/>
<mask id="mask2_142_8788" style="mask-type:alpha" maskUnits="userSpaceOnUse" x="104" y="49" width="29" height="26">
<path fill-rule="evenodd" clip-rule="evenodd" d="M132.047 49.0748H104.712V74.4059H132.047V49.0748Z" fill="white"/>
</mask>
<g mask="url(#mask2_142_8788)">
<path fill-rule="evenodd" clip-rule="evenodd" d="M112.895 49.0748C112.895 49.0748 113.371 57.3098 114.987 58.5181C116.604 59.7264 127.675 62.8562 127.675 62.8562C127.675 62.8562 128.171 69.3508 126.382 68.6682C124.594 67.9857 106.542 65.4496 106.358 64.3494C106.174 63.2495 104.712 50.5352 104.712 50.5352L112.895 49.0748Z" fill="#ECAFA3"/>
</g>
<path fill-rule="evenodd" clip-rule="evenodd" d="M69.8831 29.4601C67.186 33.7163 67.3752 37.9161 65.4648 39.2601C63.5543 40.6042 62.7677 42.5082 62.2058 44.9723C61.6439 47.4364 62.2058 46.1141 62.2058 46.1141L71.7165 52.6267C71.7165 52.6267 77.3771 40.9402 76.3656 44.6363C75.3542 48.3324 70.753 65.5747 71.7165 66.4678C72.68 67.3608 83.9453 69.1216 92.1406 68.7491C105.585 66.033 105.585 65.6863 105.585 65.1633C105.585 64.0433 104.461 52.2525 104.461 52.2525L112.889 50.3485C112.889 50.3485 112.181 33.5892 104.981 27.9579C104.981 27.9579 101.081 25.1174 96.2807 24.071C96.2807 24.071 94.8806 27.1108 90.4805 27.2105C86.0804 27.3101 84.6536 25.7428 83.5553 24.0095C83.5553 24.0095 72.5802 25.204 69.8831 29.4601Z" fill="black"/>
<path fill-rule="evenodd" clip-rule="evenodd" d="M131.981 62.1773C132.005 62.176 132.03 62.1766 132.054 62.1777C132.116 62.1796 132.178 62.1875 132.24 62.2013L134.232 62.6382C134.789 62.7604 135.14 63.3079 135.018 63.8626C134.907 64.3626 134.448 64.6964 133.951 64.6664C134.401 64.8549 134.667 65.3421 134.559 65.8343C134.458 66.2887 134.069 66.6064 133.626 66.6385C134.027 66.8477 134.255 67.3059 134.152 67.7679C134.043 68.2683 133.583 68.6017 133.086 68.5715C133.536 68.7599 133.802 69.2477 133.694 69.7399C133.572 70.2939 133.021 70.6437 132.466 70.5214C132.466 70.5214 130.214 69.9153 130.115 69.9309L125.654 68.4378C125.68 68.3162 125.7 68.1845 125.711 68.0402C125.803 66.8219 126.234 63.8186 126.17 62.4626C126.17 62.4626 129.285 61.2652 130.489 60.2671C131.694 59.2691 132.965 57.0612 133.663 57.6483C134.454 58.3134 133.105 61.1335 132.024 62.1372C132.01 62.1509 131.995 62.1647 131.981 62.1773Z" fill="#ECAFA3"/>
<path fill-rule="evenodd" clip-rule="evenodd" d="M132.199 64.7285L132.199 64.6351L134.055 64.6344L134.04 64.7224L132.199 64.7285Z" fill="black"/>
<path fill-rule="evenodd" clip-rule="evenodd" d="M131.32 68.6426L131.323 68.5461L133.228 68.5468L133.213 68.6349L131.32 68.6426Z" fill="black"/>
<path fill-rule="evenodd" clip-rule="evenodd" d="M131.849 66.8411L131.85 66.721L133.667 66.633L133.652 66.721L131.849 66.8411Z" fill="black"/>
<path fill-rule="evenodd" clip-rule="evenodd" d="M73.293 49.4826C73.293 49.4826 71.1751 58.8364 66.5046 56.7888C61.8343 54.7411 58.8239 51.7216 51.2454 44.7552C48.268 42.0183 40.8608 35.3828 42.2444 34.466C43.0138 33.9562 49.2547 37.9147 52.6071 39.3004C53.5946 39.7086 62.5186 45.4192 63.3425 45.3606C64.1664 45.3019 73.293 49.4826 73.293 49.4826Z" fill="#ECAFA3"/>
<path fill-rule="evenodd" clip-rule="evenodd" d="M53.1061 39.0361C53.1061 39.0361 53.6147 37.5954 50.1479 35.4323C48.3185 34.291 46.4642 31.1646 45.7367 31.9184C45.0093 32.6721 47.5942 36.2712 47.5942 36.2712C47.5942 36.2712 45.3991 34.9857 43.9249 33.3745C42.4506 31.7635 41.1245 30.4801 41.1245 30.4801C41.1245 30.4801 40.1421 30.1042 40.2646 30.99C40.387 31.8759 40.6902 32.1033 40.6902 32.1033C40.6902 32.1033 39.9919 32.0848 40.1177 32.7567C40.2436 33.4284 40.3951 33.5422 40.3951 33.5422C40.3951 33.5422 39.8832 33.5913 39.9933 34.1792C40.1034 34.767 40.5076 35.0702 40.5076 35.0702C40.5076 35.0702 40.1472 35.233 40.6143 35.8722C41.0814 36.5112 43.6539 39.8123 45.173 40.7352C46.6922 41.6581 50.4349 42.9965 50.4349 42.9965C50.4349 42.9965 53.6084 39.9834 53.1061 39.0361Z" fill="#ECAFA3"/>
<path fill-rule="evenodd" clip-rule="evenodd" d="M44.8519 38.2097C44.8047 38.1886 43.6826 37.6768 42.3 36.225C41.0581 34.921 40.7277 35.0906 40.7245 35.093C40.7245 35.093 40.7275 35.0912 40.7326 35.0861L40.5991 34.9519C40.6127 34.9384 40.6662 34.8943 40.7792 34.896C41.0183 34.8995 41.5001 35.1104 42.4376 36.0948C43.7946 37.5198 44.9184 38.0321 44.9296 38.0371L44.8519 38.2097Z" fill="black"/>
<path fill-rule="evenodd" clip-rule="evenodd" d="M45.1997 37.2878C45.1965 37.2859 44.8745 37.0919 44.0026 36.591C43.3828 36.2348 42.5232 35.3324 41.8955 34.6735C41.6129 34.3768 41.3689 34.1207 41.2149 33.9853C40.7572 33.583 40.4124 33.6256 40.409 33.6262L40.3785 33.4395C40.3959 33.4368 40.8086 33.3761 41.3404 33.8435C41.5007 33.9844 41.7474 34.2434 42.0331 34.5433C42.6528 35.1938 43.5014 36.0847 44.0974 36.4271C44.9715 36.9294 45.2948 37.1241 45.2979 37.126L45.1997 37.2878Z" fill="black"/>
<path fill-rule="evenodd" clip-rule="evenodd" d="M45.4502 36.5363C45.4381 36.5293 44.2337 35.8253 43.3548 35.0686C42.5323 34.3605 41.7682 33.3309 41.3577 32.7777L41.2632 32.6506C40.9287 32.2026 40.7076 32.1822 40.7055 32.1821L40.7092 31.9931C40.74 31.9932 41.021 32.0095 41.4154 32.5378L41.5102 32.6653C41.9163 33.2125 42.6723 34.2311 43.4788 34.9255C44.3446 35.671 45.5339 36.3661 45.5459 36.373L45.4502 36.5363Z" fill="black"/>
<path fill-rule="evenodd" clip-rule="evenodd" d="M49.6251 37.3041C49.6183 37.2997 48.943 36.8709 48.4647 36.8095C47.9329 36.7412 47.5423 36.3542 47.5259 36.3378L47.6604 36.2045C47.664 36.2081 48.0231 36.5621 48.4889 36.6219C49.0097 36.6889 49.6985 37.1264 49.7275 37.1449L49.6251 37.3041Z" fill="black"/>
<path d="M94.4213 11.5638L94.6622 11.6409L94.6387 11.7161C94.6197 11.7774 94.5987 11.8476 94.5759 11.9254C94.5109 12.148 94.4458 12.387 94.3852 12.6329C94.3177 12.9064 94.2599 13.1715 94.2147 13.4219L94.2016 13.4961C94.0917 14.1328 94.0762 14.6191 94.1743 14.8806L94.1802 14.8954C94.7416 16.2796 93.9792 16.9816 92.3791 16.49L92.3303 16.4747L92.4074 16.2347C93.8488 16.6944 94.4268 16.1764 93.9456 14.9899C93.8131 14.6633 93.8336 14.109 93.9657 13.3773C94.012 13.1213 94.0709 12.851 94.1395 12.5728C94.1943 12.3508 94.2524 12.1347 94.3111 11.9308L94.333 11.8549C94.3462 11.8098 94.3589 11.7671 94.3709 11.7271L94.4018 11.626L94.4213 11.5638Z" fill="black"/>
<path d="M88.1653 21.2085L88.289 20.9886L88.3342 21.0132L88.3756 21.0352C88.4383 21.0681 88.5097 21.1044 88.5891 21.1432L88.6236 21.1601C88.8905 21.2897 89.1857 21.4193 89.5005 21.5403C90.2245 21.8185 90.9398 22.0084 91.6053 22.07C91.9069 22.0979 92.1927 22.0986 92.4604 22.07L92.5136 22.0638L92.5446 22.314C92.2426 22.3511 91.9208 22.3524 91.5819 22.321C90.8902 22.2569 90.1534 22.0614 89.4095 21.7755C89.0876 21.6518 88.7859 21.5193 88.5128 21.3867L88.4096 21.3358C88.3656 21.3139 88.3244 21.2929 88.286 21.2729L88.2145 21.2353L88.1653 21.2085Z" fill="black"/>
<path fill-rule="evenodd" clip-rule="evenodd" d="M92.765 18.4582C91.5717 18.4582 90.672 17.9134 90.6298 17.8874C90.5407 17.8326 90.5131 17.716 90.5682 17.6272C90.6231 17.5384 90.74 17.5108 90.8292 17.5657C90.847 17.5766 91.9039 18.2094 93.178 18.0553C93.2813 18.0429 93.3765 18.1166 93.3892 18.2203C93.4019 18.3239 93.3278 18.4182 93.2237 18.4307C93.0671 18.4498 92.9137 18.4582 92.765 18.4582Z" fill="black"/>
<path fill-rule="evenodd" clip-rule="evenodd" d="M93.2771 16.6432C93.0214 16.6432 92.7025 16.5934 92.3044 16.4664L92.3815 16.2263C93.1228 16.4627 93.6704 16.4434 93.9234 16.1718C94.1386 15.9407 94.1373 15.518 93.9197 14.9816C93.7721 14.6176 93.8085 13.9273 94.0282 12.9298C94.1888 12.1998 94.3934 11.5619 94.3954 11.5555L94.6362 11.6326C94.4145 12.3216 93.8956 14.2496 94.1542 14.8871C94.4829 15.6975 94.311 16.1263 94.1088 16.3433C93.9646 16.4983 93.713 16.6432 93.2771 16.6432Z" fill="black"/>
<mask id="mask3_142_8788" style="mask-type:alpha" maskUnits="userSpaceOnUse" x="88" y="10" width="5" height="2">
<path fill-rule="evenodd" clip-rule="evenodd" d="M88.2781 10.2047H92.5532V11.4266H88.2781V10.2047Z" fill="white"/>
</mask>
<g mask="url(#mask3_142_8788)">
<path fill-rule="evenodd" clip-rule="evenodd" d="M92.2053 11.4266C92.1673 11.4266 92.1286 11.4203 92.0907 11.4071C91.7217 11.2788 90.6557 10.9377 90.1617 10.9013C89.6965 10.867 88.9868 11.096 88.7526 11.1872C88.5737 11.2568 88.3721 11.1689 88.3021 10.9907C88.2321 10.8124 88.3202 10.6115 88.499 10.5416C88.5392 10.5259 89.4938 10.1568 90.213 10.2099C90.8995 10.2606 92.2622 10.7325 92.3199 10.7526C92.5012 10.8157 92.5969 11.0134 92.5337 11.1941C92.4836 11.3371 92.3491 11.4266 92.2053 11.4266Z" fill="black"/>
</g>
<path fill-rule="evenodd" clip-rule="evenodd" d="M98.0666 12.6107C97.9969 12.6107 97.9266 12.5893 97.866 12.5451C97.6726 12.4039 97.0753 12.0216 96.6412 11.9492C96.178 11.8721 95.1124 11.9593 94.7408 11.9993C94.5544 12.0192 94.3869 11.8851 94.3668 11.6994C94.3465 11.5136 94.4813 11.3466 94.6676 11.3265C94.7259 11.3202 96.1032 11.1735 96.7532 11.2818C97.4366 11.3956 98.2342 11.9749 98.2678 11.9996C98.4189 12.1102 98.4515 12.3219 98.3405 12.4726C98.274 12.5628 98.171 12.6107 98.0666 12.6107Z" fill="black"/>
<path fill-rule="evenodd" clip-rule="evenodd" d="M91.3518 12.957C91.3518 13.1616 91.1853 13.3276 90.98 13.3276C90.7747 13.3276 90.6082 13.1616 90.6082 12.957C90.6082 12.7523 90.7747 12.5864 90.98 12.5864C91.1853 12.5864 91.3518 12.7523 91.3518 12.957Z" fill="black"/>
<path fill-rule="evenodd" clip-rule="evenodd" d="M96.1138 13.376C96.1138 13.5807 95.9473 13.7465 95.7419 13.7465C95.5366 13.7465 95.3701 13.5807 95.3701 13.376C95.3701 13.1713 95.5366 13.0054 95.7419 13.0054C95.9473 13.0054 96.1138 13.1713 96.1138 13.376Z" fill="black"/>
<mask id="mask4_142_8788" style="mask-type:alpha" maskUnits="userSpaceOnUse" x="83" y="0" width="18" height="14">
<path fill-rule="evenodd" clip-rule="evenodd" d="M83.5706 0.375244H100.458V13.5641H83.5706V0.375244Z" fill="white"/>
</mask>
<g mask="url(#mask4_142_8788)">
<path fill-rule="evenodd" clip-rule="evenodd" d="M84.7747 11.1597C84.7747 11.1597 82.4982 8.32365 84.2055 4.41615C85.9129 0.508652 89.8335 -0.0585655 92.1733 0.760749C92.1733 0.760749 100.331 -1.57115 100.457 5.23546C100.56 10.7935 92.4894 6.3699 92.4894 6.3699C92.4894 6.3699 92.4894 9.64716 89.2644 9.26901C86.0394 8.89087 86.0394 13.8068 85.4702 13.5547C84.9011 13.3026 84.7747 11.1597 84.7747 11.1597Z" fill="#9B5120"/>
</g>
<path fill-rule="evenodd" clip-rule="evenodd" d="M87.9172 12.5151C87.9172 11.1856 88.9987 10.1078 90.3327 10.1078C91.6666 10.1078 92.748 11.1856 92.748 12.5151C92.748 13.8446 91.6666 14.9223 90.3327 14.9223C88.9987 14.9223 87.9172 13.8446 87.9172 12.5151ZM92.1789 12.5151C92.1789 11.4989 91.3523 10.675 90.3327 10.675C89.313 10.675 88.4864 11.4989 88.4864 12.5151C88.4864 13.5313 89.313 14.3551 90.3327 14.3551C91.3523 14.3551 92.1789 13.5313 92.1789 12.5151Z" fill="black"/>
<path fill-rule="evenodd" clip-rule="evenodd" d="M93.8538 13.0876C93.8538 11.7581 94.9352 10.6803 96.2692 10.6803C97.6031 10.6803 98.6845 11.7581 98.6845 13.0876C98.6845 14.4171 97.6031 15.4948 96.2692 15.4948C94.9352 15.4948 93.8538 14.4171 93.8538 13.0876ZM98.1154 13.0876C98.1154 12.0713 97.2888 11.2475 96.2692 11.2475C95.2495 11.2475 94.4229 12.0713 94.4229 13.0876C94.4229 14.1038 95.2495 14.9276 96.2692 14.9276C97.2888 14.9276 98.1154 14.1038 98.1154 13.0876Z" fill="black"/>
<path d="M84.7226 10.7882C84.7792 10.6471 84.9369 10.5763 85.0795 10.6254L85.0925 10.6302L88.2543 11.8907C88.4002 11.9489 88.4712 12.1139 88.4128 12.2594C88.3561 12.4005 88.1985 12.4713 88.0558 12.4222L88.0429 12.4174L84.8811 11.1569C84.7352 11.0987 84.6642 10.9336 84.7226 10.7882Z" fill="black"/>
<path d="M92.2254 12.6323C92.2423 12.481 92.3756 12.3709 92.5263 12.3806L92.5397 12.3818L94.1978 12.5657C94.354 12.583 94.4665 12.7232 94.4491 12.8789C94.4322 13.0301 94.299 13.1403 94.1481 13.1306L94.1348 13.1294L92.4768 12.9455C92.3206 12.9282 92.2081 12.7879 92.2254 12.6323Z" fill="black"/>
</svg>
