<svg width="23" height="23" viewBox="0 0 23 23" fill="none" xmlns="http://www.w3.org/2000/svg">
<path d="M15.9249 7.07438C15.9895 7.13893 16.0407 7.21557 16.0757 7.29993C16.1106 7.38429 16.1286 7.47471 16.1286 7.56602C16.1286 7.65733 16.1106 7.74775 16.0757 7.83211C16.0407 7.91647 15.9895 7.99311 15.9249 8.05766L8.05787 15.9247C7.92748 16.0551 7.75063 16.1283 7.56623 16.1283C7.38183 16.1283 7.20498 16.0551 7.07459 15.9247C6.9442 15.7943 6.87095 15.6175 6.87095 15.4331C6.87095 15.2487 6.9442 15.0718 7.07459 14.9414L14.9416 7.07438C15.0062 7.00979 15.0828 6.95856 15.1672 6.92361C15.2515 6.88865 15.3419 6.87066 15.4332 6.87066C15.5246 6.87066 15.615 6.88865 15.6993 6.92361C15.7837 6.95856 15.8603 7.00979 15.9249 7.07438ZM12.9746 16.9091L9.69667 20.1871C8.7837 21.0993 7.54581 21.6116 6.25519 21.6114C4.96457 21.6111 3.72689 21.0983 2.81428 20.1857C1.90168 19.2731 1.38887 18.0354 1.38861 16.7448C1.38836 15.4542 1.90068 14.2163 2.81293 13.3033L6.09086 10.0254C6.22113 9.89494 6.29429 9.71813 6.29424 9.53379C6.29418 9.34946 6.22094 9.17269 6.09059 9.04234C5.96025 8.912 5.78348 8.83875 5.59914 8.8387C5.41481 8.83865 5.238 8.9118 5.10758 9.04207L1.82965 12.32C0.65748 13.4939 -0.000618962 15.0853 4.36835e-07 16.7442C0.000619836 18.4032 0.659907 19.994 1.83296 21.167C3.00601 22.3401 4.59682 22.9994 6.25577 23C7.91471 23.0006 9.50602 22.3425 10.6799 21.1703L13.9579 17.8924C14.0882 17.762 14.1613 17.5852 14.1613 17.4008C14.1612 17.2165 14.088 17.0397 13.9576 16.9094C13.8273 16.779 13.6505 16.7058 13.4662 16.7057C13.2818 16.7057 13.105 16.7788 12.9746 16.9091ZM21.1699 1.82999C19.9954 0.658121 18.404 0 16.7448 0C15.0856 0 13.4942 0.658121 12.3196 1.82999L9.04171 5.10793C8.97702 5.17246 8.92569 5.24912 8.89064 5.33351C8.85559 5.4179 8.83753 5.50837 8.83747 5.59974C8.83742 5.69112 8.85537 5.78161 8.89032 5.86605C8.92526 5.95048 8.9765 6.0272 9.04111 6.09181C9.10573 6.15642 9.18244 6.20767 9.26688 6.24261C9.35131 6.27755 9.4418 6.29551 9.53318 6.29545C9.62455 6.2954 9.71502 6.27733 9.79941 6.24229C9.8838 6.20724 9.96045 6.1559 10.025 6.09121L13.3029 2.81326C14.2159 1.90101 15.4538 1.38869 16.7444 1.38894C18.035 1.3892 19.2727 1.90201 20.1853 2.81462C21.0979 3.72723 21.6107 4.96492 21.611 6.25554C21.6112 7.54616 21.0989 8.78406 20.1867 9.69702L16.9087 12.975C16.8441 13.0395 16.7928 13.1162 16.7579 13.2005C16.7229 13.2849 16.7048 13.3753 16.7048 13.4667C16.7048 13.558 16.7228 13.6485 16.7577 13.7329C16.7926 13.8173 16.8439 13.8939 16.9085 13.9585C16.973 14.0231 17.0497 14.0743 17.1341 14.1093C17.2185 14.1442 17.309 14.1622 17.4003 14.1622C17.4916 14.1621 17.5821 14.1441 17.6664 14.1091C17.7508 14.0741 17.8275 14.0229 17.892 13.9582L21.1699 10.6803C22.3418 9.50578 23 7.91434 23 6.25515C23 4.59596 22.3418 3.00452 21.1699 1.82999Z" fill="#484849"/>
</svg>
