<svg width="28" height="29" viewBox="0 0 28 29" fill="none" xmlns="http://www.w3.org/2000/svg">
<path opacity="0.75" d="M28 22.6399C28 23.0215 27.9339 23.403 27.8016 24.0389C27.668 24.5477 27.5294 25.0564 27.3831 25.3108C27.1046 26.0739 26.2957 26.7098 24.9577 27.4729C23.7113 28.1088 22.4776 28.4904 21.2579 28.4904H20.2048C19.8728 28.3633 19.4951 28.236 19.0703 28.236C18.6467 28.1088 18.3288 27.9817 18.1164 27.8545C17.918 27.8545 17.5529 27.7273 17.0226 27.4729C16.4922 27.2185 16.1679 27.2186 16.0483 27.0914C14.7485 26.7099 13.5886 26.0739 12.5685 25.4379C10.8711 24.4205 9.11453 23.0214 7.29819 21.2408C5.4952 19.333 4.07008 17.5524 3.0227 15.899C2.38639 14.8815 1.83618 13.7369 1.37221 12.4651C1.3324 12.3379 1.2131 11.9562 1.01418 11.4475C0.81539 10.9388 0.676121 10.5572 0.59663 10.3028C0.530238 10.1756 0.43752 9.79412 0.318219 9.41256C0.198919 9.031 0.112687 8.64942 0.0596503 8.26786C0.0198411 7.8863 0 7.63187 0 7.25031C0 5.97845 0.33806 4.70672 1.01418 3.56204C1.75657 2.163 2.45927 1.39988 3.12216 1.01833C3.45361 0.891141 3.90436 0.763893 4.4744 0.636707C5.05768 0.509521 5.52839 0.509552 5.8863 0.509552H6.30397C6.54258 0.636738 6.89386 1.14542 7.35797 2.03572C7.50372 2.29009 7.70264 2.67171 7.95447 3.05327C8.20642 3.56201 8.43841 3.94357 8.65056 4.32513C8.86258 4.70669 9.06811 5.08827 9.26703 5.46983C9.30671 5.46983 9.4194 5.59689 9.60509 5.97845C9.80388 6.23282 9.94976 6.48719 10.0426 6.61438C10.1353 6.86875 10.1817 6.99594 10.1817 7.25031C10.1817 7.50468 9.98957 7.75911 9.60509 8.26786C9.23383 8.64942 8.82289 9.03104 8.37215 9.28541C7.93463 9.66696 7.52356 9.92124 7.13921 10.3028C6.76795 10.6844 6.58238 11.066 6.58238 11.3203C6.58238 11.4475 6.61545 11.5746 6.68172 11.7018C6.74811 11.9562 6.80114 12.0834 6.84083 12.0834C6.89386 12.2106 6.98671 12.3378 7.11924 12.5922C7.26512 12.8466 7.34461 12.9737 7.35797 12.9737C8.36553 14.7543 9.51886 16.4078 10.8181 17.6796C12.117 18.9515 13.675 20.0961 15.4913 21.1136C15.518 21.1136 15.6439 21.2409 15.869 21.3681C16.0941 21.4952 16.2531 21.6224 16.3459 21.6224C16.4388 21.6224 16.5723 21.7495 16.744 21.7495C16.9297 21.8767 17.0824 21.8767 17.2019 21.8767C17.4397 21.8767 17.745 21.7496 18.1164 21.3681C18.4878 20.9865 18.8388 20.6049 19.1707 20.0962C19.5014 19.7146 19.8665 19.2059 20.2645 18.8243C20.6614 18.4428 20.9933 18.3156 21.2579 18.3156C21.4436 18.3156 21.6293 18.3155 21.8149 18.4427C22.0146 18.5699 22.2525 18.6972 22.531 18.8243C22.8095 19.0787 22.9749 19.2058 23.0283 19.2058C23.3603 19.4602 23.7113 19.5874 24.0827 19.8417C24.4668 20.0961 24.8903 20.2233 25.3545 20.4777C25.8188 20.732 26.1774 20.9864 26.4293 21.1136C27.3564 21.6223 27.8601 22.004 27.9402 22.1311C27.9797 22.2583 28 22.3856 28 22.6399Z" fill="#787878"/>
<path d="M0.278283 5.27901C0.0934816 5.9246 0 6.58826 0 7.22648C0 7.58514 0.039682 7.91506 0.0794913 8.25999C0.132528 8.59169 0.198665 8.98749 0.317965 9.41255C0.437265 9.83697 0.529857 10.1539 0.596248 10.3664C0.675739 10.5654 0.834467 10.9483 1.03339 11.4793C1.23231 12.0097 1.35135 12.3137 1.39116 12.4332C1.85514 13.7343 2.38436 14.9082 3.02067 15.9308C4.06804 17.63 5.51021 19.3585 7.3132 21.1772C9.12941 22.982 10.8627 24.4205 12.5596 25.4698C13.5809 26.107 14.7574 26.6742 16.0572 27.1397C16.1768 27.1791 16.4808 27.2974 17.0111 27.4971C17.5415 27.6955 17.9256 27.8151 18.124 27.8939C18.3364 27.9601 18.6531 28.0529 19.0779 28.1725C19.5027 28.292 19.8588 28.3976 20.1908 28.451C20.5355 28.4904 20.9056 28.4904 21.2642 28.4904C22.4839 28.4904 23.7138 28.1737 24.9603 27.4971C26.2995 26.7531 27.1059 26.0535 27.3844 25.3896C27.5307 25.059 27.649 24.61 27.7825 24.0389C27.9148 23.4551 27.9809 22.9655 27.9809 22.6081C27.9809 22.4224 27.9809 22.2634 27.9415 22.1706C27.8944 22.0294 27.6528 21.8361 27.3056 21.6148C26.9838 22.2431 26.2207 22.9019 24.9603 23.6014C23.7138 24.278 22.4839 24.6354 21.2642 24.6354C20.9056 24.6354 20.5355 24.596 20.1908 24.5553C19.8588 24.5019 19.5027 24.437 19.0779 24.3175C18.6531 24.1979 18.3364 24.1051 18.124 24.0389C17.9256 23.9588 17.5415 23.8011 17.0111 23.6014C16.4808 23.403 16.1768 23.2834 16.0572 23.244C14.7574 22.7798 13.5809 22.252 12.5596 21.6148C10.8627 20.5655 9.12941 19.127 7.3132 17.3222C5.51021 15.5035 4.06804 13.7343 3.02067 12.0351C2.38436 11.0136 1.85514 9.87881 1.39116 8.57795C1.35135 8.4584 1.23231 8.11512 1.03339 7.58425C0.834467 7.05325 0.675739 6.7101 0.596248 6.51118C0.529857 6.29853 0.437265 5.98158 0.317965 5.55729C0.289475 5.45605 0.30283 5.37503 0.278283 5.27901Z" fill="#787878"/>
</svg>
