<svg width="258" height="199" viewBox="0 0 258 199" fill="none" xmlns="http://www.w3.org/2000/svg">
<path d="M114.187 43.1516L110.826 43.1529L110.93 158.589L114.292 158.587L114.187 43.1516Z" fill="#B3B3B3"/>
<path d="M123.776 168.823L129.268 182.733L95.0339 182.752L101.493 168.835L123.776 168.823Z" fill="#1715B1"/>
<path d="M104.268 159.164L109.171 159.161C109.079 158.842 109.014 158.512 109.013 158.163C109.012 156.922 109.635 155.828 110.585 155.176L110.579 149.718L114.715 149.716L114.721 155.227C115.632 155.884 116.232 156.948 116.233 158.159C116.234 158.508 116.169 158.838 116.077 159.157L120.596 159.155L123.776 168.823L101.493 168.835L104.268 159.164Z" fill="#151390"/>
<path fill-rule="evenodd" clip-rule="evenodd" d="M46.9998 180H54.9998V169H46.9998V180Z" fill="#C26E5E"/>
<path fill-rule="evenodd" clip-rule="evenodd" d="M85.9998 177.461L78.4489 178L77.9998 169.539L85.5503 169L85.9998 177.461Z" fill="#C26E5E"/>
<path fill-rule="evenodd" clip-rule="evenodd" d="M74.1902 188.039C72.9985 186.61 77.7646 184.874 78.3124 181.132C78.3215 181.069 78.3335 181.006 78.3477 180.947L78.1811 178.191L78.0333 178.197C77.8967 178.203 77.7706 178.161 77.6768 178.09C77.583 178.018 77.5215 177.916 77.514 177.801C77.5005 177.572 77.7098 177.375 77.983 177.363L87.3153 176.963C87.4519 176.957 87.578 176.999 87.6718 177.07C87.7656 177.142 87.8271 177.243 87.8339 177.358C87.8482 177.588 87.638 177.785 87.3656 177.796L87.2223 177.803L87.3641 180.144L87.3739 180.306C87.3641 180.578 87.3611 181.183 87.4677 181.956C87.6575 183.32 88.1926 185.205 89.6485 186.684C92.2353 189.312 75.3819 189.468 74.1902 188.039Z" fill="#484849"/>
<path fill-rule="evenodd" clip-rule="evenodd" d="M87.4219 181.956H87.4158C87.3091 181.184 87.3121 180.579 87.3218 180.306L87.4219 181.956Z" fill="white"/>
<path fill-rule="evenodd" clip-rule="evenodd" d="M59.7274 187.417C58.5364 188.93 41.6826 188.765 44.2694 185.983C45.7636 184.377 46.2882 182.319 46.4645 180.867L46.4052 177.477L46.2574 177.479C46.1208 177.481 45.9962 177.433 45.9054 177.354C45.8146 177.276 45.7568 177.166 45.7553 177.044C45.7508 176.8 45.9685 176.599 46.2416 176.596L55.5849 176.465C55.7214 176.463 55.846 176.51 55.9368 176.589C56.0269 176.668 56.0847 176.777 56.0869 176.899C56.0914 177.142 55.873 177.344 55.5999 177.348L55.4565 177.35L55.497 179.649C55.5458 179.79 55.5826 179.942 55.6051 180.106C56.153 184.068 60.9191 185.905 59.7274 187.417Z" fill="#484849"/>
<path fill-rule="evenodd" clip-rule="evenodd" d="M43.5953 71.9072C43.5953 71.9072 40.4223 95.7881 41.1054 114.043C41.7885 132.298 43.3657 166.354 43.3657 166.354C43.3657 166.354 41.2823 168.377 42.8449 170.138C43.6866 171.087 57.1257 170.238 57.1257 170.238C57.1257 170.238 58.0235 167.948 56.7176 165.984C56.7176 165.984 60.5554 99.4799 60.6065 100.525C60.9049 106.626 67.7162 141.541 74.2883 166.113C74.2883 166.113 73.5299 169.28 74.4146 170.039C75.2994 170.799 88.7504 170.682 89.0033 169.669C89.2562 168.656 87.7396 165.11 87.7396 165.11C87.7396 165.11 82.7548 97.124 76.3769 71.9072H43.5953Z" fill="#552690"/>
<path d="M108.411 86.8956C108.356 86.8394 107.406 85.6278 107.406 85.6278L104.15 81.1854L103.766 80.8072C105.187 79.8658 108.801 76.5034 109.978 75.497C110.117 75.3783 110.238 75.2582 110.344 75.1395L114.849 78.8452L117.023 80.9435C117.519 81.4525 117.532 82.307 117.05 82.8516C116.622 83.335 115.948 83.4112 115.455 83.0651C115.818 83.5795 115.788 84.3244 115.352 84.8157C114.951 85.27 114.333 85.3653 113.851 85.0884C114.116 85.5908 114.052 86.2476 113.658 86.6938C113.23 87.1771 112.557 87.2535 112.063 86.9081C112.426 87.4225 112.395 88.1666 111.96 88.6579C111.478 89.2033 110.686 89.2318 110.189 88.7219L108.411 86.8956Z" fill="#C26E5E"/>
<path fill-rule="evenodd" clip-rule="evenodd" d="M18.214 83.0462C18.214 83.0462 17.7482 84.8083 12.8978 84.6233C10.3382 84.5262 6.42507 86.3711 6.21597 85.1407C6.00687 83.9103 10.9536 82.088 10.9536 82.088C10.9536 82.088 7.93869 81.888 5.41311 82.4919C2.88744 83.0958 0.726784 83.4748 0.726784 83.4748C0.726784 83.4748 -0.489057 83.1891 0.224419 82.3964C0.937858 81.6044 1.38761 81.5826 1.38761 81.5826C1.38761 81.5826 0.689899 81.1339 1.26327 80.5552C1.83669 79.9764 2.06158 79.9656 2.06158 79.9656C2.06158 79.9656 1.59206 79.5747 2.09373 79.0684C2.59549 78.5619 3.19514 78.533 3.19514 78.533C3.19514 78.533 2.95051 78.1314 3.83688 77.8132C4.72325 77.495 9.45819 75.9584 11.5669 76.0637C13.6757 76.1692 18.2447 77.3518 18.2447 77.3518C18.2447 77.3518 19.3412 82.4475 18.214 83.0462Z" fill="#C26E5E"/>
<path d="M1.38733 81.4647L1.44639 81.6828L1.87422 81.567C4.49114 80.8615 6.44469 80.4079 7.73322 80.2062L7.81543 80.1935L7.78178 79.9705L7.65683 79.9899C6.30201 80.2053 4.24168 80.6891 1.47405 81.4414L1.38733 81.4647Z" fill="#995B5D"/>
<path d="M2.01099 79.8065L2.06753 80.0265L2.4771 79.9093C4.98233 79.1968 6.85251 78.7387 8.08605 78.5348L8.16475 78.5221L8.13253 78.2967L8.01291 78.3163C6.71592 78.5339 4.74352 79.0226 2.094 79.7827L2.01099 79.8065Z" fill="#995B5D"/>
<path d="M3.27283 78.3574L3.32316 78.5774L3.68778 78.4602C5.91805 77.7477 7.58297 77.2895 8.68111 77.0857L8.75118 77.0729L8.72249 76.8476L8.616 76.8671C7.46136 77.0847 5.70545 77.5735 3.34673 78.3335L3.27283 78.3574Z" fill="#995B5D"/>
<path fill-rule="evenodd" clip-rule="evenodd" d="M56.1186 22.7421C56.1186 22.7421 55.8416 28.8454 52.289 30.9998C49.0657 32.9546 55.8946 44.2973 63.2408 43.6207C67.262 43.2502 68.2045 32.2301 68.2045 32.2301C68.2045 32.2301 64.9575 31.6013 66.1569 26.6392L56.1186 22.7421Z" fill="#C26E5E"/>
<path fill-rule="evenodd" clip-rule="evenodd" d="M62.0155 28.9396C57.2531 28.3624 53.8161 25.2244 53.3348 20.0187C51.9503 20.2396 51.6237 16.6243 52.0093 15.463C52.3953 14.3 53.6551 14.98 53.6551 14.98C53.6551 14.98 53.7597 14.7043 53.8329 14.4028C55.9134 5.85082 61.7403 6.19 61.7403 6.19C72.4474 6.74901 69.9386 17.7039 69.3269 20.6102C68.7151 23.5167 66.6193 29.497 62.0155 28.9396Z" fill="#C26E5E"/>
<path fill-rule="evenodd" clip-rule="evenodd" d="M11.9431 75.927C11.9431 75.927 29.4052 47.214 35.7092 40.4165C42.0132 33.6191 41.153 32.1207 52.1164 31.1505C52.1164 31.1505 51.7486 37.2177 58.8507 38.4173C65.9527 39.6168 67.2672 32.4971 66.5301 30.9389C66.5301 30.9389 76.4263 33.919 80.4861 37.2178C84.5453 40.5165 110.663 75.551 110.663 75.551L104.625 81.9703C104.625 81.9703 76.9747 49.8629 76.536 52.172C76.1111 54.4073 81.3979 77.6382 80.6144 79.4324C80.5882 79.4916 80.5559 79.5275 80.5161 79.5385C79.8017 79.7364 71.4676 84.0332 59.9923 84.0332C48.5169 84.0332 40.7892 81.9703 40.7892 81.9395C40.7892 81.9395 46.1411 53.7119 44.6061 52.5021C43.0709 51.2924 24.966 79.0807 18.6027 81.2953L11.9431 75.927Z" fill="#151390"/>
<path fill-rule="evenodd" clip-rule="evenodd" d="M113.937 81.198L113.933 81.2442C113.917 81.2288 113.9 81.2134 113.882 81.1996C113.9 81.1996 113.918 81.1988 113.937 81.198Z" fill="#C26E5E"/>
<path d="M65.1517 16.373L65.4376 16.4649L65.4096 16.5547C65.3871 16.6279 65.3621 16.7116 65.3351 16.8045C65.258 17.07 65.1808 17.3553 65.1088 17.6488C65.0287 17.9751 64.9601 18.2915 64.9065 18.5903L64.8909 18.6787C64.7605 19.4386 64.7421 20.0189 64.8586 20.3309L64.8655 20.3486C65.5317 22.0004 64.627 22.838 62.728 22.2515L62.6702 22.2333L62.7617 21.9467C64.4722 22.4953 65.1582 21.8772 64.5871 20.4613C64.4299 20.0716 64.4542 19.4102 64.611 18.537C64.6659 18.2315 64.7358 17.909 64.8172 17.577C64.8822 17.3121 64.9513 17.0542 65.0208 16.8109L65.0469 16.7204C65.0626 16.6665 65.0776 16.6156 65.0919 16.5679L65.1285 16.4472L65.1517 16.373Z" fill="black"/>
<path d="M57.7677 27.8906L57.9146 27.6283L57.9682 27.6576L58.0173 27.6838C58.0918 27.723 58.1765 27.7663 58.2707 27.8127L58.3116 27.8328C58.6284 27.9874 58.9787 28.1421 59.3523 28.2865C60.2114 28.6185 61.0603 28.8451 61.8501 28.9186C62.2081 28.9519 62.5473 28.9527 62.8649 28.9186L62.9282 28.9113L62.9649 29.2099C62.6065 29.2541 62.2246 29.2556 61.8224 29.2181C61.0015 29.1417 60.1272 28.9084 59.2443 28.5672C58.8623 28.4196 58.5042 28.2615 58.1802 28.1033L58.0576 28.0426C58.0055 28.0164 57.9566 27.9914 57.911 27.9675L57.8261 27.9225L57.7677 27.8906Z" fill="black"/>
<path fill-rule="evenodd" clip-rule="evenodd" d="M63.0136 24.8449C61.6456 24.4776 60.7822 23.5727 60.7418 23.5297C60.6565 23.4391 60.6608 23.2962 60.7513 23.2107C60.8417 23.1254 60.9842 23.1296 61.0695 23.2203C61.0866 23.2383 62.1031 24.2931 63.6111 24.5077C63.7334 24.5251 63.8198 24.6394 63.8024 24.7628C63.785 24.8861 63.6709 24.972 63.5479 24.9544C63.3625 24.9282 63.184 24.8906 63.0136 24.8449Z" fill="black"/>
<path fill-rule="evenodd" clip-rule="evenodd" d="M63.838 22.4416C63.5346 22.4416 63.1561 22.3821 62.6837 22.2306L62.7751 21.9441C63.6549 22.2262 64.3048 22.2032 64.6051 21.8791C64.8605 21.6033 64.8589 21.0989 64.6007 20.4587C64.4254 20.0244 64.4687 19.2007 64.7294 18.0103C64.9201 17.1392 65.1628 16.378 65.1652 16.3704L65.451 16.4623C65.1878 17.2846 64.5721 19.5853 64.8789 20.346C65.269 21.313 65.065 21.8247 64.825 22.0838C64.6539 22.2686 64.3553 22.4416 63.838 22.4416Z" fill="black"/>
<path fill-rule="evenodd" clip-rule="evenodd" d="M62.5775 16.2193C62.5324 16.2193 62.4865 16.2118 62.4415 16.1961C62.0036 16.043 60.7385 15.6359 60.1523 15.5925C59.6002 15.5515 58.758 15.8248 58.48 15.9336C58.2677 16.0166 58.0284 15.9117 57.9454 15.6991C57.8623 15.4864 57.9669 15.2467 58.179 15.1633C58.2267 15.1445 59.3596 14.704 60.2132 14.7674C61.0278 14.8279 62.6451 15.3911 62.7135 15.415C62.9287 15.4903 63.0423 15.7262 62.9672 15.9419C62.9078 16.1124 62.7482 16.2193 62.5775 16.2193Z" fill="black"/>
<path fill-rule="evenodd" clip-rule="evenodd" d="M69.4707 17.6266C69.388 17.6266 69.3045 17.6012 69.2327 17.5484C69.0031 17.3799 68.2943 16.9237 67.7792 16.8373C67.2294 16.7453 65.9648 16.8493 65.5238 16.8971C65.3026 16.9208 65.1038 16.7608 65.0799 16.5392C65.0559 16.3175 65.2158 16.1183 65.437 16.0943C65.5062 16.0867 67.1406 15.9117 67.912 16.0409C68.7231 16.1767 69.6696 16.868 69.7096 16.8974C69.8888 17.0294 69.9275 17.2821 69.7958 17.4618C69.7168 17.5695 69.5946 17.6266 69.4707 17.6266Z" fill="black"/>
<path fill-rule="evenodd" clip-rule="evenodd" d="M61.7669 18.3939C61.7124 18.3939 61.658 18.3743 61.6147 18.3345C61.6119 18.3319 61.2406 18.0016 60.7047 18.0216C60.1502 18.0421 59.7821 18.314 59.7784 18.3167C59.6792 18.3912 59.5382 18.3716 59.4635 18.2727C59.3887 18.1736 59.4074 18.033 59.5059 17.9576C59.5251 17.9429 59.9845 17.5968 60.6881 17.5707C61.4122 17.5446 61.8988 17.9833 61.9191 18.0021C62.0108 18.0863 62.0169 18.229 61.9328 18.3208C61.8884 18.3693 61.8277 18.3939 61.7669 18.3939Z" fill="black"/>
<path fill-rule="evenodd" clip-rule="evenodd" d="M68.0579 19.054C68.0035 19.054 67.949 19.0344 67.9058 18.9946C67.903 18.992 67.5317 18.6613 66.9957 18.6817C66.4427 18.7022 66.074 18.9735 66.0704 18.9762C65.9716 19.0519 65.8303 19.0329 65.7548 18.934C65.6793 18.835 65.6981 18.6934 65.7969 18.6177C65.8161 18.603 66.2756 18.2568 66.9792 18.2308C67.703 18.2048 68.1899 18.6434 68.2102 18.6622C68.3018 18.7464 68.308 18.8891 68.2239 18.9809C68.1795 19.0294 68.1188 19.054 68.0579 19.054Z" fill="black"/>
<mask id="mask0_45_1669" style="mask-type:alpha" maskUnits="userSpaceOnUse" x="37" y="4" width="40" height="36">
<path fill-rule="evenodd" clip-rule="evenodd" d="M37.9922 4.07336H76.7291V39.5905H37.9922V4.07336Z" fill="white"/>
</mask>
<g mask="url(#mask0_45_1669)">
<path fill-rule="evenodd" clip-rule="evenodd" d="M67.4784 39.1668C65.4987 39.7872 67.0777 34.3731 66.2965 33.1005C65.5152 31.828 64.8053 28.9378 65.9287 27.5675C67.0514 26.1972 69.2308 22.5595 69.5384 19.5324C69.8454 16.506 69.2795 15.1019 69.2795 15.1019C69.2795 15.1019 67.0769 15.9043 65.1408 14.0986C63.9663 13.0028 61.6564 12.1876 59.9191 10.6376C59.9048 11.3084 59.7014 12.35 58.638 12.6892C57.0253 13.2037 57.1236 15.3937 53.739 15.0334C53.739 15.0334 52.0498 14.1415 51.9192 16.2721C51.7893 18.4035 52.4227 19.8911 53.3706 19.9904C53.3706 19.9904 54.5578 20.3634 54.2621 21.9804C53.9664 23.5966 56.0925 24.7051 55.736 26.7763C55.3795 28.8476 54.3822 29.4906 55.0944 31.3475C55.8073 33.2043 56.0482 35.3748 55.1799 37.2392C54.3124 39.1036 49.577 36.1126 47.7211 37.5686C45.8652 39.0239 45.7039 38.1342 43.3639 36.8406C41.024 35.547 38.5145 37.3234 38.5325 34.8687C38.5588 31.3527 37.0698 28.9965 38.9257 27.3795C40.7816 25.7625 40.534 24.1712 41.3565 22.2624C42.5287 19.5414 44.7786 19.3556 45.1823 17.2536C45.5853 15.1508 46.5301 12.7043 49.0959 11.073C51.9762 9.24323 53.6115 4.09076 57.2422 5.54603C57.3975 5.60845 57.5446 5.67388 57.6835 5.74156C57.7397 4.96994 58.193 3.84709 60.4234 4.11332C63.7554 4.51117 69.7073 5.06771 70.6589 8.16926C71.6112 11.2701 71.3733 13.7354 72.6431 16.7572C73.9121 19.779 71.6908 20.9718 72.7219 22.9596C73.7538 24.9473 75.7372 27.0945 75.5789 29.1619C75.4198 31.2294 74.3887 33.8541 76.1342 36.0013C77.8798 38.1477 75.4198 39.7383 73.4363 39.5797C71.4529 39.4202 69.4581 38.5471 67.4784 39.1668Z" fill="#711515"/>
</g>
<path fill-rule="evenodd" clip-rule="evenodd" d="M171.338 171.01L172.084 176.666L167.467 177.601L165.415 171.899L171.338 171.01Z" fill="#ECAFA3"/>
<path fill-rule="evenodd" clip-rule="evenodd" d="M143.799 156.135L140.587 156.114L146.504 164.968L149.209 161.883L143.799 156.135Z" fill="#ECAFA3"/>
<path fill-rule="evenodd" clip-rule="evenodd" d="M152.713 164.531C153.018 164.531 153.923 163.506 155.239 161.76L157.05 172.194C168.69 173.958 173.561 170.567 173.561 170.567L170.14 139.575C175.379 131.388 180.116 123.127 182.138 120.161C188.282 111.148 186.969 70.3148 186.969 70.3148C178.436 70.5482 152.501 70.3148 152.501 70.3148C152.501 70.3148 150.493 112.789 150.493 116.544C150.493 120.3 152.575 136.296 152.575 136.296C152.575 136.296 142.165 153.821 142.859 155.491C143.553 157.159 150.91 164.531 152.713 164.531Z" fill="#484849"/>
<path d="M167.636 85.8617L167.623 85.8623C167.496 85.8712 167.401 85.9813 167.41 86.1082L167.425 86.3479C167.43 86.434 167.436 86.5296 167.442 86.6345L167.458 86.9137C167.477 87.2734 167.496 87.6727 167.514 88.1082C167.708 92.7994 167.662 97.9009 167.209 102.695C166.685 108.234 165.667 112.651 164.065 115.52L162.176 118.911L160.018 122.791C158.658 125.239 157.236 127.803 155.805 130.384L152.479 136.391C152.418 136.502 152.458 136.642 152.569 136.704C152.676 136.763 152.809 136.728 152.874 136.626L156.039 130.911C157.481 128.309 158.916 125.722 160.29 123.248L162.36 119.525C163.112 118.175 163.816 116.911 164.466 115.745C166.106 112.807 167.137 108.336 167.666 102.738C168.122 97.9204 168.167 92.7994 167.973 88.0891L167.962 87.831C167.944 87.4082 167.924 87.0224 167.905 86.6769L167.884 86.3194L167.868 86.0758C167.86 85.9535 167.757 85.8602 167.636 85.8617Z" fill="black"/>
<path d="M165.022 146.329C164.919 146.264 164.784 146.292 164.714 146.391L164.706 146.402L155.174 161.685C155.107 161.793 155.14 161.936 155.248 162.002C155.351 162.068 155.486 162.039 155.556 161.941L155.564 161.93L165.095 146.646C165.163 146.539 165.13 146.397 165.022 146.329Z" fill="black"/>
<path fill-rule="evenodd" clip-rule="evenodd" d="M166.978 176.546C166.978 176.546 166.37 176.423 166.37 176.957C166.37 177.49 166.978 180.811 166.39 183.449C165.802 186.088 162.386 189.511 170.731 189.624C179.076 189.736 177.144 186.481 176.164 185.217C175.184 183.954 173.094 180.955 172.618 179.103C172.141 177.251 172.411 175.703 171.879 175.451C171.879 175.451 169.471 176.489 166.978 176.546Z" fill="#787878"/>
<path fill-rule="evenodd" clip-rule="evenodd" d="M176.822 188.402C175.356 189.622 172.871 190.095 168.87 189.622C164.869 189.149 164.794 187.605 165.416 186.136C165.416 186.136 172.424 186.98 176.188 185.238C176.188 185.238 178.288 187.181 176.822 188.402Z" fill="#787878"/>
<path fill-rule="evenodd" clip-rule="evenodd" d="M147.508 163.819C147.508 163.819 147.988 164.045 147.48 164.724C146.971 165.402 146.408 167.015 145.468 170.417C144.528 173.818 144.267 175.284 144.006 179.68C143.745 184.076 144.163 190.198 140.664 188.367C137.165 186.535 135.86 180.569 136.487 176.959C137.113 173.348 138.471 169.632 137.322 165.079C136.173 160.527 135.338 157.648 137.949 156.758C140.56 155.869 142.988 155.091 143.001 156.029C143.001 156.029 142.878 161.697 147.508 163.819Z" fill="#787878"/>
<path fill-rule="evenodd" clip-rule="evenodd" d="M136.309 181.471C136.309 181.471 137.297 189.232 141.993 189.026C141.993 189.026 143.724 189.563 143.806 182.998C143.806 182.998 143.559 186.095 136.309 181.471Z" fill="#787878"/>
<mask id="mask1_45_1669" style="mask-type:alpha" maskUnits="userSpaceOnUse" x="136" y="156" width="5" height="9">
<path fill-rule="evenodd" clip-rule="evenodd" d="M140.088 156.275H136.024V164.525H140.088V156.275Z" fill="white"/>
</mask>
<g mask="url(#mask1_45_1669)">
<path fill-rule="evenodd" clip-rule="evenodd" d="M139.964 156.275C139.964 156.275 141.02 161.728 136.962 164.525C136.962 164.525 135.555 159.988 136.188 158.484C136.821 156.98 137.76 156.909 139.964 156.275Z" fill="#787878"/>
</g>
<path fill-rule="evenodd" clip-rule="evenodd" d="M173.68 20.1142C173.68 20.1142 173.963 26.3436 177.589 28.5425C180.879 30.5376 173.909 42.1145 166.411 41.424C162.307 41.0459 161.345 29.7982 161.345 29.7982C161.345 29.7982 164.659 29.1564 163.435 24.0919L173.68 20.1142Z" fill="#ECAFA3"/>
<path fill-rule="evenodd" clip-rule="evenodd" d="M167.662 26.4398C172.523 25.8507 176.031 22.6479 176.522 17.3347C177.935 17.5601 178.269 13.8702 177.875 12.6849C177.481 11.4979 176.195 12.1919 176.195 12.1919C176.195 12.1919 176.089 11.9105 176.014 11.6028C173.89 2.87425 167.943 3.22044 167.943 3.22044C157.015 3.79098 159.576 14.9721 160.2 17.9384C160.824 20.9049 162.963 27.0087 167.662 26.4398Z" fill="#ECAFA3"/>
<path fill-rule="evenodd" clip-rule="evenodd" d="M199.993 47.0939C199.993 47.0939 213.375 67.6039 208.437 71.9819C203.498 76.36 189.594 61.3305 189.594 61.3305C189.594 61.3305 190.311 57.9747 193.294 54.0078C196.277 50.0409 199.993 47.0939 199.993 47.0939Z" fill="#ECAFA3"/>
<path fill-rule="evenodd" clip-rule="evenodd" d="M145.799 57.1867L152.116 56.4498C152.116 56.4498 150.5 78.2405 151.107 78.2405C151.433 78.2405 159.022 82.3633 169.655 82.3633C177.824 82.3633 187.844 79.656 188.268 79.633C188.32 79.6299 188.37 79.5946 188.419 79.5293C188.282 78.0264 188.174 75.3689 188.065 72.4344C187.988 70.3757 187.91 68.1811 187.82 66.1538C187.737 64.2678 187.644 62.5269 187.531 61.1744C187.041 55.2754 187.38 49.8921 187.38 49.8921L189.799 56.4705L205.133 50.8716C205.133 50.8716 200.013 43.3928 193.908 36.8882C187.852 30.4341 178.138 28.7968 177.986 28.7723C177.986 28.7715 177.985 28.7715 177.985 28.7715C177.985 28.7715 178.53 37.6757 169.341 38.3597C161.701 38.9285 161.305 29.751 161.305 29.751C161.305 29.751 152.373 32.0876 149.811 34.2775C147.249 36.4675 135.946 51.4197 135.946 51.7973C135.946 52.175 145.799 57.1867 145.799 57.1867Z" fill="black"/>
<path d="M193.76 7.47639L190.27 7.15019L179.176 126.996L182.665 127.322L193.76 7.47639Z" fill="#B3B3B3"/>
<path d="M191.517 138.872L195.868 153.847L160.327 150.53L168.383 136.713L191.517 138.872Z" fill="#1715B1"/>
<path d="M172.203 126.944L177.293 127.419C177.228 127.079 177.193 126.729 177.226 126.367C177.345 125.078 178.098 124.003 179.147 123.419L179.671 117.752L183.965 118.153L183.436 123.875C184.318 124.646 184.838 125.809 184.721 127.067C184.688 127.429 184.589 127.765 184.463 128.088L189.154 128.525L191.517 138.872L168.383 136.713L172.203 126.944Z" fill="#151390"/>
<path fill-rule="evenodd" clip-rule="evenodd" d="M190.854 52.0557C190.854 52.0557 194.414 55.842 194 55C194.5 56 194.355 55.4349 194 55C194.789 55.8304 195.43 55.812 192.945 59.0147C190.459 62.2175 189.63 61.9406 188.605 61.3871C187.579 60.8335 187.46 60.4382 185.527 60.2404C183.594 60.0428 181.74 58.1448 181.779 57.6703L181.818 57.1959C181.818 57.1959 180.043 56.5237 180.161 55.7724C180.28 55.0212 180.793 55.1002 180.793 55.1002C180.793 55.1002 180.437 54.7444 180.714 54.1117C180.99 53.4791 182.292 53.5977 183.791 53.7955C185.29 53.9931 189.157 54.7839 189.394 54.6258C189.63 54.4677 189.552 54.2304 188.644 54.1117C187.737 53.9931 184.067 53.9536 184.067 52.9255C184.067 51.8975 185.172 51.6998 187.303 51.7394C189.433 51.7789 189.828 51.6602 190.341 51.858L190.854 52.0557Z" fill="#ECAFA3"/>
<path fill-rule="evenodd" clip-rule="evenodd" d="M180.703 55.1046C180.703 55.1046 180.589 55.0226 181.434 55.3457C181.741 55.4633 182.175 55.5861 182.786 55.7021C185.074 56.137 188.664 56.9279 189.769 57.086C190.874 57.2442 189.966 57.4814 187.441 56.9674C184.916 56.4534 181.91 55.7638 181.775 55.7187C181.545 55.6419 180.856 55.4117 180.703 55.1046Z" fill="black"/>
<path fill-rule="evenodd" clip-rule="evenodd" d="M182 57C182 57 183.868 57.629 184.787 57.8593C185.763 58.1038 186.471 58.2398 186.471 58.2398L186.667 58.3116C186.667 58.3116 187.391 58.5007 187.563 58.542C187.87 58.6158 188.471 58.7398 188.471 58.7398C188.471 58.7398 188.464 58.9613 186.625 58.5775C186.169 58.4823 185.323 58.3472 184.787 58.1937C184.294 58.0525 182.513 57.5931 182.276 57.3954C182.04 57.1977 182 57 182 57Z" fill="black"/>
<path fill-rule="evenodd" clip-rule="evenodd" d="M146.913 56.732C146.913 56.732 142.922 67.8466 137.564 64.6319C132.206 61.417 129.01 57.2668 120.868 47.5951C117.67 43.7954 109.686 34.5545 111.505 33.6441C112.516 33.138 119.49 38.9282 123.349 41.1328C124.486 41.7823 134.451 50.1234 135.46 50.1771C136.469 50.2308 146.913 56.732 146.913 56.732Z" fill="#ECAFA3"/>
<path fill-rule="evenodd" clip-rule="evenodd" d="M123.956 40.8988C123.956 40.8988 124.792 39.2146 120.912 36.0421C118.865 34.368 117.089 30.2631 116.091 31.0739C115.094 31.8848 117.685 36.6789 117.685 36.6789C117.685 36.6789 115.216 34.7729 113.671 32.5785C112.126 30.3843 110.711 28.6131 110.711 28.6131C110.711 28.6131 109.576 28.0039 109.59 29.1057C109.604 30.2076 109.938 30.5317 109.938 30.5317C109.938 30.5317 109.093 30.4028 109.143 31.2435C109.194 32.084 109.361 32.2461 109.361 32.2461C109.361 32.2461 108.732 32.2282 108.776 32.9638C108.821 33.6993 109.266 34.1316 109.266 34.1316C109.266 34.1316 108.803 34.2758 109.273 35.1284C109.743 35.9809 112.365 40.4088 114.069 41.7685C115.773 43.1282 120.113 45.3344 120.113 45.3344C120.113 45.3344 124.422 42.1335 123.956 40.8988Z" fill="#ECAFA3"/>
<path fill-rule="evenodd" clip-rule="evenodd" d="M114.076 38.6346C114.022 38.6016 112.738 37.805 111.28 35.8194C109.97 34.0359 109.544 34.193 109.539 34.1954C109.539 34.1954 109.543 34.1936 109.55 34.1883L109.408 34.0038C109.427 33.9894 109.499 33.9436 109.636 33.9629C109.925 34.0036 110.478 34.3348 111.467 35.6812C112.898 37.6301 114.184 38.4276 114.197 38.4354L114.076 38.6346Z" fill="black"/>
<path fill-rule="evenodd" clip-rule="evenodd" d="M114.637 37.5603C114.633 37.5575 114.272 37.2713 113.289 36.5261C112.591 35.9962 111.685 34.7619 111.023 33.8608C110.725 33.455 110.467 33.1047 110.301 32.9157C109.806 32.3542 109.381 32.3537 109.377 32.3539L109.369 32.121C109.39 32.1203 109.9 32.109 110.475 32.7614C110.648 32.9581 110.908 33.3123 111.209 33.7225C111.863 34.6122 112.758 35.8307 113.429 36.3402C114.414 37.0874 114.777 37.3747 114.78 37.3775L114.637 37.5603Z" fill="black"/>
<path fill-rule="evenodd" clip-rule="evenodd" d="M115.022 36.6787C115.008 36.6684 113.653 35.6241 112.701 34.5652C111.81 33.5742 111.039 32.1989 110.625 31.4601L110.529 31.2902C110.191 30.6915 109.926 30.6329 109.923 30.6325L109.957 30.4019C109.994 30.4067 110.333 30.4694 110.731 31.1754L110.827 31.3458C111.237 32.0767 112 33.4373 112.874 34.4091C113.811 35.4524 115.149 36.4834 115.163 36.4937L115.022 36.6787Z" fill="black"/>
<path fill-rule="evenodd" clip-rule="evenodd" d="M119.982 38.255C119.975 38.2487 119.22 37.6215 118.649 37.4736C118.014 37.3091 117.598 36.7765 117.581 36.7539L117.764 36.6114C117.768 36.6164 118.15 37.1039 118.707 37.248C119.329 37.4091 120.098 38.0489 120.131 38.076L119.982 38.255Z" fill="black"/>
<path d="M164.45 13.6212L164.159 13.715L164.187 13.8066C164.21 13.8813 164.236 13.9668 164.263 14.0616C164.342 14.3326 164.421 14.6237 164.494 14.9233C164.576 15.2564 164.646 15.5793 164.701 15.8843L164.717 15.9746C164.85 16.7501 164.868 17.3424 164.75 17.6608L164.743 17.6789C164.063 19.3648 164.986 20.2197 166.924 19.6211L166.983 19.6025L166.89 19.31C165.144 19.8699 164.444 19.2391 165.027 17.7939C165.187 17.3962 165.162 16.7211 165.002 15.8299C164.946 15.5181 164.875 15.1889 164.792 14.85C164.725 14.5797 164.655 14.3164 164.584 14.0681L164.557 13.9758C164.541 13.9207 164.526 13.8688 164.511 13.8201L164.474 13.697L164.45 13.6212Z" fill="black"/>
<path d="M171.988 25.3767L171.838 25.1089L171.783 25.1388L171.733 25.1655C171.657 25.2056 171.57 25.2498 171.474 25.2972L171.433 25.3177C171.109 25.4755 170.752 25.6334 170.37 25.7808C169.493 26.1196 168.627 26.3509 167.821 26.4258C167.456 26.4599 167.109 26.4607 166.785 26.4258L166.721 26.4184L166.683 26.7231C167.049 26.7683 167.439 26.7698 167.849 26.7316C168.687 26.6536 169.579 26.4154 170.481 26.0672C170.87 25.9165 171.236 25.7552 171.567 25.5937L171.692 25.5317C171.745 25.505 171.795 25.4795 171.841 25.4551L171.928 25.4092L171.988 25.3767Z" fill="black"/>
<path fill-rule="evenodd" clip-rule="evenodd" d="M166.649 22.2699C168.045 21.895 168.926 20.9715 168.967 20.9276C169.054 20.8351 169.05 20.6893 168.957 20.602C168.865 20.5149 168.72 20.5192 168.633 20.6118C168.615 20.6301 167.578 21.7067 166.039 21.9257C165.914 21.9435 165.826 22.0602 165.843 22.1861C165.861 22.312 165.978 22.3997 166.103 22.3817C166.292 22.3549 166.475 22.3166 166.649 22.2699Z" fill="black"/>
<path fill-rule="evenodd" clip-rule="evenodd" d="M165.797 19.815C166.107 19.815 166.493 19.7543 166.976 19.5997L166.882 19.3072C165.984 19.5952 165.321 19.5717 165.015 19.2409C164.754 18.9594 164.756 18.4446 165.019 17.7912C165.198 17.3479 165.154 16.5072 164.888 15.2922C164.693 14.4031 164.445 13.6262 164.443 13.6185L164.151 13.7123C164.42 14.5515 165.048 16.8997 164.735 17.6761C164.337 18.6631 164.545 19.1854 164.79 19.4498C164.965 19.6385 165.27 19.815 165.797 19.815Z" fill="black"/>
<path fill-rule="evenodd" clip-rule="evenodd" d="M167.101 13.4699C167.147 13.4699 167.194 13.4623 167.24 13.4462C167.687 13.2899 168.978 12.8745 169.577 12.8301C170.14 12.7883 171 13.0673 171.284 13.1783C171.5 13.2631 171.745 13.156 171.829 12.939C171.914 12.7219 171.807 12.4772 171.591 12.3921C171.542 12.373 170.386 11.9234 169.515 11.9881C168.683 12.0498 167.033 12.6246 166.963 12.6491C166.743 12.7259 166.627 12.9666 166.704 13.1868C166.764 13.3609 166.927 13.4699 167.101 13.4699Z" fill="black"/>
<path fill-rule="evenodd" clip-rule="evenodd" d="M160.049 14.9006C160.134 14.9006 160.219 14.8747 160.292 14.8208C160.527 14.6489 161.25 14.1832 161.776 14.095C162.337 14.0011 163.628 14.1073 164.078 14.1561C164.304 14.1802 164.506 14.017 164.531 13.7908C164.555 13.5645 164.392 13.3611 164.166 13.3366C164.096 13.329 162.428 13.1503 161.64 13.2821C160.812 13.4208 159.846 14.1264 159.806 14.1564C159.623 14.2911 159.583 14.549 159.718 14.7325C159.798 14.8424 159.923 14.9006 160.049 14.9006Z" fill="black"/>
<path fill-rule="evenodd" clip-rule="evenodd" d="M167.904 15.6857C167.96 15.6857 168.015 15.6657 168.06 15.6251C168.062 15.6225 168.441 15.2853 168.988 15.3058C169.554 15.3267 169.93 15.6042 169.934 15.607C170.035 15.683 170.179 15.663 170.255 15.562C170.332 15.4609 170.312 15.3174 170.212 15.2404C170.192 15.2254 169.723 14.8721 169.005 14.8455C168.266 14.8189 167.77 15.2667 167.749 15.2858C167.655 15.3718 167.649 15.5175 167.735 15.6111C167.78 15.6606 167.842 15.6857 167.904 15.6857Z" fill="black"/>
<path fill-rule="evenodd" clip-rule="evenodd" d="M161.491 16.3615C161.546 16.3615 161.602 16.3414 161.646 16.3008C161.649 16.2982 162.028 15.9606 162.575 15.9815C163.139 16.0024 163.516 16.2792 163.519 16.282C163.62 16.3593 163.764 16.34 163.841 16.239C163.918 16.1379 163.899 15.9934 163.798 15.9162C163.779 15.9011 163.31 15.5478 162.592 15.5212C161.853 15.4948 161.356 15.9424 161.335 15.9615C161.242 16.0475 161.236 16.1932 161.321 16.2868C161.367 16.3364 161.429 16.3615 161.491 16.3615Z" fill="black"/>
<mask id="mask2_45_1669" style="mask-type:alpha" maskUnits="userSpaceOnUse" x="157" y="0" width="21" height="17">
<path fill-rule="evenodd" clip-rule="evenodd" d="M177.464 0H157.009V16.0633H177.464V0Z" fill="white"/>
</mask>
<g mask="url(#mask2_45_1669)">
<path fill-rule="evenodd" clip-rule="evenodd" d="M176.006 13.135C176.006 13.135 178.763 9.68078 176.695 4.92163C174.627 0.162485 169.878 -0.528359 167.044 0.469526C167.044 0.469526 157.163 -2.37061 157.01 5.91952C156.885 12.6889 166.661 7.3012 166.661 7.3012C166.661 7.3012 166.661 11.2927 170.567 10.8322C174.474 10.3716 174.474 16.3589 175.163 16.0519C175.852 15.7448 176.006 13.135 176.006 13.135Z" fill="#9B5120"/>
</g>
<path fill-rule="evenodd" clip-rule="evenodd" d="M172.37 14.7718C172.37 13.1526 171.06 11.8399 169.445 11.8399C167.829 11.8399 166.519 13.1526 166.519 14.7718C166.519 16.3911 167.829 17.7038 169.445 17.7038C171.061 17.7038 172.37 16.3911 172.37 14.7718ZM167.208 14.7718C167.208 13.5341 168.21 12.5307 169.445 12.5307C170.68 12.5307 171.681 13.5341 171.681 14.7718C171.681 16.0095 170.68 17.0129 169.445 17.0129C168.21 17.0129 167.208 16.0096 167.208 14.7718Z" fill="black"/>
<path fill-rule="evenodd" clip-rule="evenodd" d="M165.179 15.4795C165.179 13.8602 163.869 12.5475 162.253 12.5475C160.638 12.5475 159.328 13.8602 159.328 15.4795C159.328 17.0988 160.638 18.4114 162.253 18.4114C163.869 18.4114 165.179 17.0988 165.179 15.4795ZM160.017 15.4795C160.017 14.2417 161.018 13.2384 162.253 13.2384C163.489 13.2384 164.49 14.2418 164.49 15.4795C164.49 16.7172 163.489 17.7206 162.253 17.7206C161.018 17.7206 160.017 16.7172 160.017 15.4795Z" fill="black"/>
<path d="M176.198 12.6671C176.129 12.4952 175.938 12.409 175.766 12.4688L175.75 12.4747L171.92 14.0099C171.743 14.0807 171.657 14.2817 171.728 14.4589C171.797 14.6308 171.988 14.717 172.16 14.6571L172.176 14.6513L176.006 13.1161C176.183 13.0452 176.269 12.8442 176.198 12.6671Z" fill="black"/>
<path d="M167.102 14.9139C167.081 14.7297 166.92 14.5956 166.737 14.6074L166.721 14.6088L164.713 14.8328C164.523 14.8539 164.387 15.0247 164.408 15.2143C164.429 15.3985 164.59 15.5326 164.773 15.5208L164.789 15.5194L166.797 15.2954C166.986 15.2743 167.123 15.1035 167.102 14.9139Z" fill="black"/>
</svg>
