<svg width="216" height="190" viewBox="0 0 216 190" fill="none" xmlns="http://www.w3.org/2000/svg">
<path fill-rule="evenodd" clip-rule="evenodd" d="M46.9998 180H54.9998V169H46.9998V180Z" fill="#C26E5E"/>
<path fill-rule="evenodd" clip-rule="evenodd" d="M85.9998 177.461L78.4489 178L77.9998 169.539L85.5503 169L85.9998 177.461Z" fill="#C26E5E"/>
<path fill-rule="evenodd" clip-rule="evenodd" d="M74.1902 188.039C72.9985 186.61 77.7646 184.874 78.3124 181.132C78.3215 181.069 78.3335 181.006 78.3477 180.947L78.1811 178.191L78.0333 178.197C77.8967 178.203 77.7706 178.161 77.6768 178.09C77.583 178.018 77.5215 177.916 77.514 177.801C77.5005 177.572 77.7098 177.375 77.983 177.363L87.3153 176.963C87.4519 176.957 87.578 176.999 87.6718 177.07C87.7656 177.142 87.8271 177.243 87.8339 177.358C87.8482 177.588 87.638 177.785 87.3656 177.796L87.2223 177.803L87.3641 180.144L87.3739 180.306C87.3641 180.578 87.3611 181.183 87.4677 181.956C87.6575 183.32 88.1926 185.205 89.6485 186.684C92.2353 189.312 75.3819 189.468 74.1902 188.039Z" fill="#484849"/>
<path fill-rule="evenodd" clip-rule="evenodd" d="M87.4219 181.956H87.4158C87.3091 181.184 87.3121 180.579 87.3218 180.306L87.4219 181.956Z" fill="white"/>
<path fill-rule="evenodd" clip-rule="evenodd" d="M59.7274 187.417C58.5364 188.93 41.6826 188.765 44.2694 185.983C45.7636 184.377 46.2882 182.319 46.4645 180.867L46.4052 177.477L46.2574 177.479C46.1208 177.481 45.9962 177.433 45.9054 177.354C45.8146 177.276 45.7568 177.166 45.7553 177.044C45.7508 176.8 45.9685 176.599 46.2416 176.596L55.5849 176.465C55.7214 176.463 55.846 176.51 55.9368 176.589C56.0269 176.668 56.0847 176.777 56.0869 176.899C56.0914 177.142 55.873 177.344 55.5999 177.348L55.4565 177.35L55.497 179.649C55.5458 179.79 55.5826 179.942 55.6051 180.106C56.153 184.068 60.9191 185.905 59.7274 187.417Z" fill="#484849"/>
<path fill-rule="evenodd" clip-rule="evenodd" d="M43.5953 71.9072C43.5953 71.9072 40.4223 95.7881 41.1054 114.043C41.7885 132.298 43.3657 166.354 43.3657 166.354C43.3657 166.354 41.2823 168.377 42.8449 170.138C43.6866 171.087 57.1257 170.238 57.1257 170.238C57.1257 170.238 58.0235 167.948 56.7176 165.984C56.7176 165.984 60.5554 99.4799 60.6065 100.525C60.9049 106.626 67.7162 141.541 74.2883 166.113C74.2883 166.113 73.5299 169.28 74.4146 170.039C75.2994 170.799 88.7504 170.682 89.0033 169.669C89.2562 168.656 87.7396 165.11 87.7396 165.11C87.7396 165.11 82.7548 97.124 76.3769 71.9072H43.5953Z" fill="#552690"/>
<path d="M115.299 50.7893C115.299 50.237 114.852 49.7893 114.299 49.7893L112.299 49.7893C111.747 49.7893 111.299 50.237 111.299 50.7893L111.299 144.789C111.299 145.894 112.195 146.789 113.299 146.789C114.404 146.789 115.299 145.894 115.299 144.789L115.299 50.7893Z" fill="#151391"/>
<path d="M117.54 156.415C117.539 156.558 117.56 156.839 117.564 156.855C117.567 157.016 117.492 157.361 117.432 157.469C117.376 157.594 117.203 157.754 117.095 157.822C116.906 157.916 116.51 158.036 116.18 158.119C116.036 158.145 115.468 158.228 115.215 158.27C114.954 158.278 114.498 158.309 114.26 158.31C114.01 158.314 113.592 158.298 113.267 158.254C113.013 158.241 112.399 158.142 112.242 158.118C112.026 158.058 111.457 157.891 111.221 157.802C110.953 157.686 110.543 157.453 110.21 157.231C110.044 157.121 109.886 156.99 109.809 156.888C109.793 156.874 109.773 156.845 109.753 156.815C109.684 156.693 109.584 156.544 109.567 156.477C109.506 156.335 109.463 155.971 109.461 155.865C109.442 155.494 109.499 154.832 109.533 154.57C109.573 154.236 109.691 153.662 109.792 153.273C109.88 152.977 110.078 152.326 110.178 152.08C110.289 151.777 110.571 151.208 110.744 150.904C110.797 150.816 111.301 150.185 111.58 149.706C111.639 149.939 111.53 150.199 111.58 150.345C111.63 150.491 111.776 150.769 111.836 150.858C111.917 150.977 112.136 151.197 112.25 151.252C112.353 151.31 112.612 151.393 112.725 151.394C112.861 151.388 113.079 151.358 113.207 151.319C113.389 151.245 113.763 150.988 113.904 150.802C113.968 150.711 114.108 150.471 114.164 150.346C114.216 150.205 114.125 149.752 114.164 149.561C113.998 149.558 114.17 149.488 114.164 149.561L114.473 149.786C114.58 149.861 115.08 150.3 115.472 150.754C115.604 150.929 115.761 151.15 115.87 151.332C116.059 151.633 116.328 152.196 116.397 152.319C116.508 152.607 116.693 153.088 116.805 153.431C116.922 153.789 117.134 154.477 117.242 154.803C117.356 155.198 117.476 155.771 117.534 156.094C117.538 156.111 117.52 156.188 117.543 156.378C117.543 156.378 117.535 156.398 117.54 156.415Z" fill="#151391"/>
<path d="M111.277 150.481C111.259 150.345 111.242 150.209 111.22 150.125C111.186 149.79 111.236 147.827 111.274 146.487C111.282 146.181 111.279 145.903 111.276 145.688C111.273 145.473 111.31 145.235 111.284 145L111.309 144.292L111.486 144.292L111.698 144.287L112.123 144.277C112.564 144.247 113.288 144.244 113.669 144.252C113.93 144.259 114.367 144.28 114.647 144.297C114.79 144.317 114.91 144.317 114.91 144.317C114.985 144.339 115.085 144.393 115.127 144.422C115.195 144.484 115.242 144.601 115.276 144.733C115.349 145.085 115.383 146.232 115.381 146.765C115.402 147.318 115.397 148.448 115.391 149.032C115.392 149.235 115.361 149.723 115.333 149.882C115.325 149.921 115.308 149.988 115.278 150.071C115.26 150.138 115.23 150.22 115.209 150.276C115.125 150.42 115.005 150.623 114.912 150.732C114.816 150.829 114.588 151.017 114.486 151.089C114.265 151.238 113.717 151.456 113.458 151.524C113.278 151.562 112.978 151.601 112.792 151.616C112.638 151.623 112.3 151.581 112.17 151.545C112.024 151.513 111.762 151.366 111.672 151.284C111.604 151.222 111.451 151.027 111.407 150.922C111.363 150.817 111.32 150.649 111.277 150.481Z" fill="#BDA06E"/>
<path d="M118.369 179.761C118.405 179.979 118.429 180.111 118.432 180.123C118.427 180.061 118.42 179.949 118.391 179.843C118.388 179.832 118.382 179.808 118.369 179.761ZM115.029 181.135C115.036 181.373 115.037 181.588 115.035 181.753C115.04 181.727 115.05 181.597 115.055 181.57C115.046 181.497 115.053 181.394 115.041 181.309C115.039 181.259 115.034 181.197 115.029 181.135ZM103.831 182.061C103.262 181.766 102.494 181.288 102.04 180.999C101.792 180.841 101.284 180.479 101.183 180.356C101.115 180.273 101.028 180.121 100.946 179.942C100.851 179.716 100.82 179.598 100.786 179.431C100.763 179.26 100.758 179.072 100.782 178.863C100.812 178.424 100.883 177.923 100.987 177.502C100.999 177.461 101.146 176.989 101.2 176.809C101.485 175.957 102.443 173.233 103.001 171.658C103.393 170.523 104.259 168.052 104.73 166.705C105.225 165.275 106.144 162.663 106.558 161.484C106.918 160.446 107.753 158.072 108.092 157.167C108.213 156.855 108.866 156.012 109.371 155.301C109.391 155.333 109.411 155.365 109.428 155.386C109.499 155.479 109.657 155.599 109.822 155.704C110.152 155.915 110.566 156.139 110.83 156.229C111.069 156.313 111.647 156.466 111.863 156.506C112.02 156.538 112.642 156.602 112.901 156.63C113.226 156.652 113.657 156.644 113.907 156.637C114.145 156.633 114.616 156.601 114.883 156.576C115.136 156.542 115.725 156.439 115.863 156.4C116.195 156.319 116.613 156.176 116.794 156.087C116.912 156.015 117.088 155.864 117.155 155.732C117.208 155.628 117.298 155.286 117.292 155.136C117.297 155.11 117.28 154.836 117.281 154.71C117.831 155.313 118.428 155.966 118.665 156.38C118.977 156.949 119.568 158.085 119.78 158.493C120.32 159.568 121.533 162.046 122.206 163.449C122.8 164.685 124.057 167.327 124.734 168.742C125.276 169.867 126.365 172.139 126.917 173.26C127.069 173.572 127.753 174.757 128.063 175.276C128.765 176.444 129.93 178.404 130.073 178.68C130.169 178.868 130.231 179.015 130.275 179.179C130.313 179.32 130.344 179.564 130.317 179.673C130.292 179.794 130.206 179.983 130.117 180.122C130.023 180.237 129.603 180.672 129.198 181.077C129.062 181.293 128.923 181.496 128.806 181.656C128.577 181.949 128.264 182.315 128.073 182.496C127.882 182.676 127.475 183.031 127.259 183.206C127.087 183.331 126.905 183.458 126.743 183.58L126.733 183.583C126.608 183.669 126.49 183.74 126.401 183.79C126.183 183.915 125.642 184.194 125.5 184.26C125.148 184.397 123.935 184.765 123.582 184.853C123.095 184.952 121.985 185.152 121.598 185.198C121.119 185.245 120.157 185.314 119.669 185.326C119.178 185.325 118.197 185.325 117.703 185.312C117.195 185.291 116.176 185.238 115.676 185.202C115.159 185.146 114.162 185.048 113.615 184.963C112.977 184.839 112.047 184.609 111.655 184.466C111.247 184.304 110.102 183.78 109.58 183.535C109.265 183.384 108.949 183.271 108.75 183.251C108.635 183.246 108.487 183.249 108.321 183.309C108.257 183.327 108.009 183.423 107.885 183.47C107.739 183.524 107.475 183.561 107.325 183.553C107.244 183.55 107.017 183.513 106.906 183.481C106.792 183.438 106.148 183.164 105.861 183.03C105.363 182.792 104.343 182.308 103.832 182.061L103.831 182.061Z" fill="#BC9F6C"/>
<path d="M126.307 181.27C126.271 181.28 126.225 181.254 126.2 181.209C125.684 179.848 124.688 177.257 124.219 175.973C123.875 175.001 122.936 172.523 122.513 171.406C121.947 169.955 120.831 167.115 120.31 165.781C119.76 164.39 118.773 161.925 118.346 160.886C117.498 158.974 117.157 158.387 117.036 158.227C117.011 158.183 117.022 158.128 117.066 158.103C117.099 158.081 117.153 158.092 117.187 158.121C117.321 158.329 117.684 158.948 118.495 160.819C118.922 161.858 119.921 164.32 120.47 165.711C121.01 167.065 122.101 169.862 122.677 171.348C123.1 172.465 124.039 174.943 124.383 175.915C124.846 177.175 125.855 179.814 126.364 181.151C126.389 181.196 126.363 181.242 126.315 181.255C126.319 181.267 126.307 181.27 126.307 181.27Z" fill="#705A38"/>
<path d="M122.447 169.394C122.436 169.397 122.424 169.4 122.408 169.392C122.342 169.384 122.302 169.331 122.27 169.263C122.104 168.987 121.766 168.412 121.582 168.116L121.463 167.917C121.438 167.873 121.449 167.818 121.493 167.793C121.538 167.768 121.592 167.779 121.617 167.823L121.736 168.022C121.858 168.233 122.068 168.573 122.225 168.864C122.189 168.733 122.149 168.589 122.097 168.398C121.938 167.915 121.142 165.77 120.696 164.569C120.124 163.146 119.061 160.497 118.538 159.202C118.273 158.568 117.979 157.917 117.707 157.349C117.698 157.364 117.674 157.371 117.65 157.377C117.602 157.39 117.565 157.349 117.552 157.301L117.51 156.915C117.5 156.879 117.526 156.833 117.574 156.82C117.61 156.81 117.656 156.836 117.677 156.869C117.996 157.513 118.367 158.349 118.698 159.132C119.222 160.427 120.288 163.088 120.857 164.5C121.306 165.712 122.102 167.857 122.264 168.352C122.391 168.767 122.45 168.982 122.508 169.287C122.518 169.323 122.501 169.354 122.48 169.372C122.471 169.387 122.459 169.391 122.448 169.394L122.447 169.394Z" fill="#705A38"/>
<path d="M104.653 181.305C104.629 181.312 104.614 181.303 104.587 181.298C104.572 181.289 104.553 181.268 104.547 181.245C104.499 181.116 104.474 180.982 104.482 180.774C104.476 180.429 104.504 179.548 104.642 178.649C104.729 178.124 104.928 176.887 105.047 176.199C105.312 174.687 105.85 171.738 106.114 170.226C106.371 168.871 106.855 166.335 107.072 165.209C107.18 164.665 107.44 163.604 107.637 162.779C108.018 161.364 108.749 158.555 109.104 157.185C109.181 156.855 109.276 156.456 109.323 156.251L109.33 156.185C109.344 156.142 109.397 156.102 109.44 156.116C109.482 156.13 109.519 156.171 109.508 156.226L109.486 156.283C109.443 156.501 109.359 156.896 109.27 157.229C108.915 158.599 108.185 161.408 107.803 162.823C107.603 163.637 107.346 164.71 107.235 165.241C107.018 166.367 106.546 168.9 106.289 170.255C106.013 171.77 105.487 174.716 105.222 176.228C105.103 176.916 104.904 178.153 104.817 178.678C104.676 179.565 104.66 180.443 104.647 180.767C104.656 180.893 104.655 180.984 104.678 181.067C104.687 181.052 104.704 181.022 104.709 180.994L104.744 180.934C104.778 180.873 104.815 180.773 104.858 180.696C104.872 180.654 104.92 180.641 104.963 180.655C105.008 180.681 105.033 180.725 105.007 180.771C104.967 180.859 104.927 180.947 104.893 181.008L104.87 181.066C104.816 181.196 104.758 181.264 104.665 181.302L104.653 181.305L104.653 181.305Z" fill="#705A38"/>
<path d="M106.359 178.677L106.347 178.681C106.296 178.682 106.259 178.641 106.249 178.605L106.237 178.467C106.23 178.443 106.235 178.416 106.256 178.397C106.278 178.057 106.301 177.768 106.345 177.461C106.449 176.764 106.703 175.448 106.83 174.835C107.117 173.497 107.748 170.56 108.078 169.005C108.219 168.349 108.476 167.135 108.584 166.592C108.764 165.707 109.015 164.379 109.091 163.908C109.357 162.447 109.616 160.911 109.67 160.64C109.682 160.546 109.72 160.356 109.747 160.22L109.752 160.193C109.763 160.139 109.807 160.114 109.847 160.116C109.901 160.126 109.926 160.171 109.927 160.222L109.91 160.252C109.895 160.385 109.857 160.575 109.833 160.672C109.794 160.952 109.521 162.48 109.266 163.937C109.19 164.408 108.939 165.736 108.759 166.621C108.642 167.179 108.382 168.382 108.245 169.049C107.911 170.593 107.284 173.541 106.997 174.879C106.878 175.477 106.612 176.796 106.505 177.481C106.466 177.852 106.437 178.168 106.426 178.595C106.424 178.634 106.395 178.668 106.359 178.678L106.359 178.677Z" fill="#705A38"/>
<path d="M109.323 168.624C109.311 168.627 109.271 168.625 109.232 168.623C109.197 168.633 109.163 168.604 109.153 168.568L109.146 168.544C109.143 168.532 109.14 168.52 109.136 168.508L109.032 168.267C108.98 168.127 108.917 167.99 108.891 167.895C108.865 167.85 108.888 167.793 108.936 167.78C108.984 167.766 109.026 167.78 109.051 167.825C109.078 167.92 109.144 168.069 109.192 168.197L109.272 168.394C109.326 168.263 109.416 167.982 109.489 167.64C109.558 167.287 109.679 166.65 109.738 166.351C109.742 166.273 109.758 166.191 109.774 166.11C109.829 165.748 109.892 165.371 109.934 165.244C109.948 165.201 109.993 165.176 110.047 165.187C110.089 165.201 110.118 165.257 110.092 165.303C110.058 165.415 109.998 165.804 109.949 166.139C109.933 166.22 109.917 166.302 109.901 166.383C109.854 166.679 109.737 167.328 109.667 167.681C109.59 168.011 109.432 168.555 109.355 168.602C109.346 168.617 109.334 168.621 109.322 168.624L109.323 168.624Z" fill="#705A38"/>
<path d="M102.337 178.763C102.326 178.767 102.314 178.77 102.298 178.761C102.247 178.763 102.222 178.718 102.221 178.667C102.232 178.613 102.246 178.57 102.262 178.489C102.433 177.851 102.775 176.523 102.95 175.807C102.998 175.652 103.057 175.353 103.078 175.245C103.12 174.976 103.153 174.492 103.133 173.996C103.138 173.969 103.132 173.945 103.134 173.906L103.13 173.894C103.132 173.855 103.17 173.806 103.221 173.805C103.273 173.804 103.31 173.845 103.311 173.896L103.314 173.908C103.309 173.935 103.303 173.962 103.313 173.998C103.322 174.497 103.303 174.99 103.241 175.277C103.235 175.394 103.161 175.685 103.128 175.848C102.941 176.567 102.6 177.895 102.428 178.533C102.412 178.614 102.407 178.642 102.396 178.696C102.391 178.723 102.361 178.757 102.337 178.763Z" fill="#705A38"/>
<path d="M113.088 183.802C113.081 183.804 113.073 183.807 113.065 183.809C113.026 183.807 112.976 183.769 112.979 183.73C112.981 183.691 112.963 183.58 112.965 183.541C112.951 183.442 112.933 183.049 112.926 182.883C112.924 182.832 112.92 182.769 112.915 182.706L112.92 182.628C112.918 182.577 112.948 182.543 112.999 182.542C113.007 182.54 113.015 182.538 113.023 182.536C113.023 182.163 113.039 181.709 113.046 181.219C113.046 180.615 113.058 179.211 113.064 178.438C113.051 176.849 113.027 173.913 112.998 172.546C112.984 170.957 112.947 168.115 112.938 166.82C112.934 165.125 112.947 162.23 112.957 161.007C112.957 160.493 112.931 159.279 112.885 158.457C112.855 158.067 112.842 157.647 112.836 157.16C112.835 157.109 112.876 157.072 112.928 157.071C112.979 157.069 113.016 157.111 113.014 157.15C113.019 157.636 113.035 158.069 113.05 158.45C113.097 159.273 113.134 160.483 113.138 161.009C113.115 162.235 113.111 165.115 113.106 166.825C113.116 168.12 113.149 170.95 113.178 172.548C113.192 173.906 113.228 176.839 113.233 178.443C113.236 179.201 113.227 180.616 113.214 181.224C113.196 182.604 113.155 183.668 113.156 183.72C113.154 183.759 113.124 183.792 113.089 183.802L113.088 183.802Z" fill="#705A38"/>
<path d="M114.167 181.09L114.155 181.093C114.103 181.095 114.066 181.053 114.065 181.002C114.048 180.66 114.021 180.141 114.002 179.838C113.972 179.075 113.961 178.384 113.957 178.321C113.956 178.27 113.997 178.233 114.048 178.232C114.099 178.231 114.136 178.272 114.137 178.323C114.142 178.386 114.149 179.065 114.179 179.828C114.186 180.134 114.213 180.653 114.23 180.995C114.244 181.043 114.214 181.077 114.167 181.09Z" fill="#705A38"/>
<path d="M114.161 181.721L114.137 181.728C114.086 181.729 114.049 181.688 114.051 181.649C114.056 181.48 114.051 181.276 114.065 181.002C114.064 180.951 114.105 180.914 114.145 180.916C114.196 180.915 114.233 180.956 114.231 180.996C114.235 181.059 114.245 181.094 114.246 181.145L114.244 181.185C114.255 181.271 114.249 181.389 114.241 181.455C114.248 181.479 114.232 181.561 114.233 181.612L114.231 181.651C114.229 181.69 114.196 181.712 114.161 181.722L114.161 181.721Z" fill="#705A38"/>
<path d="M114.167 181.09C114.167 181.09 114.155 181.093 114.143 181.097C114.1 181.083 114.067 181.053 114.065 181.002C114.075 180.383 114.099 179.631 114.123 179.111C114.15 178.602 114.198 177.844 114.237 177.049C114.319 175.434 114.405 173.598 114.416 173.454C114.415 173.261 114.384 172.962 114.368 172.812C114.367 172.761 114.405 172.712 114.444 172.714C114.495 172.713 114.541 172.739 114.542 172.79C114.561 172.952 114.592 173.251 114.585 173.459C114.588 173.612 114.491 175.36 114.405 177.054C114.37 177.861 114.334 178.616 114.307 179.124C114.283 179.645 114.247 180.4 114.234 181.007C114.232 181.047 114.202 181.08 114.167 181.09L114.167 181.09Z" fill="#705A38"/>
<path d="M116.256 178.318L116.244 178.321C116.193 178.323 116.159 178.293 116.146 178.246L116.11 177.973C116.115 177.946 116.121 177.919 116.129 177.903C116.138 177.888 116.131 177.864 116.125 177.84C116.04 176.553 115.787 173.95 115.674 172.748C115.52 171.3 115.207 168.341 115.04 166.896C114.951 166.15 114.721 164.428 114.607 163.688C114.514 163.161 114.292 161.796 114.262 161.547C114.246 161.488 114.239 161.322 114.215 161.188C114.21 161.125 114.206 161.062 114.199 161.038C114.198 160.987 114.224 160.941 114.275 160.94C114.326 160.939 114.372 160.965 114.373 161.016C114.383 161.051 114.384 161.103 114.388 161.166C114.401 161.303 114.42 161.465 114.436 161.525C114.466 161.774 114.684 163.127 114.778 163.654C114.895 164.405 115.125 166.128 115.214 166.874C115.387 168.343 115.699 171.251 115.851 172.738C115.964 173.94 116.217 176.543 116.302 177.83C116.304 177.932 116.318 178.121 116.325 178.196L116.32 178.223C116.321 178.274 116.292 178.308 116.256 178.318L116.256 178.318Z" fill="#705A38"/>
<path d="M117.937 179.616C117.889 179.629 117.847 179.615 117.833 179.567C117.785 179.439 117.701 179.18 117.628 179.007C117.512 178.679 117.351 178.235 117.31 178.131C117.285 178.087 117.307 178.029 117.355 178.016C117.403 178.003 117.448 178.029 117.47 178.061C117.515 178.177 117.676 178.621 117.792 178.949C117.865 179.122 117.949 179.381 117.997 179.509C118.01 179.557 117.984 179.603 117.937 179.616Z" fill="#705A38"/>
<path d="M118 179.984L117.976 179.991C117.937 179.989 117.891 179.963 117.89 179.912L117.883 179.888C117.879 179.825 117.861 179.714 117.83 179.555C117.817 179.508 117.843 179.462 117.891 179.449C117.942 179.448 117.984 179.462 117.997 179.509C118.011 179.557 118.017 179.581 118.024 179.605C118.05 179.701 118.059 179.827 118.055 179.905C118.065 179.941 118.035 179.974 118 179.984L118 179.984Z" fill="#705A38"/>
<path d="M117.937 179.616L117.925 179.619C117.877 179.632 117.843 179.603 117.83 179.555C117.745 179.013 117.57 177.957 117.405 176.936C117.364 176.741 117.246 176.08 117.153 175.694C117.137 175.635 117.127 175.599 117.116 175.512C117.114 175.461 117.144 175.427 117.192 175.414C117.243 175.413 117.276 175.442 117.289 175.49C117.297 175.565 117.307 175.601 117.32 175.648C117.414 176.034 117.535 176.707 117.575 176.902C117.744 177.934 117.916 178.979 118.001 179.521C118.014 179.569 117.973 179.606 117.937 179.616L117.937 179.616Z" fill="#705A38"/>
<path d="M108.411 86.8956C108.356 86.8394 107.406 85.6278 107.406 85.6278L104.15 81.1854L103.766 80.8073C105.188 79.8658 108.801 76.5034 109.978 75.497C110.117 75.3784 110.238 75.2583 110.344 75.1395L114.849 78.8452L117.023 80.9435C117.519 81.4525 117.532 82.307 117.05 82.8516C116.622 83.335 115.948 83.4112 115.455 83.0651C115.818 83.5796 115.788 84.3245 115.352 84.8157C114.951 85.27 114.333 85.3653 113.851 85.0884C114.116 85.5908 114.053 86.2476 113.658 86.6939C113.23 87.1771 112.557 87.2535 112.063 86.9081C112.427 87.4226 112.395 88.1666 111.96 88.6579C111.478 89.2033 110.686 89.2319 110.189 88.7219L108.411 86.8956Z" fill="#C26E5E"/>
<path fill-rule="evenodd" clip-rule="evenodd" d="M18.2141 83.0462C18.2141 83.0462 17.7483 84.8084 12.898 84.6233C10.3383 84.5263 6.42519 86.3712 6.21609 85.1408C6.00699 83.9104 10.9537 82.0881 10.9537 82.0881C10.9537 82.0881 7.93881 81.888 5.41324 82.492C2.88756 83.0959 0.726906 83.4749 0.726906 83.4749C0.726906 83.4749 -0.488935 83.1891 0.224541 82.3964C0.93798 81.6045 1.38773 81.5827 1.38773 81.5827C1.38773 81.5827 0.690021 81.134 1.2634 80.5553C1.83681 79.9765 2.0617 79.9657 2.0617 79.9657C2.0617 79.9657 1.59218 79.5748 2.09386 79.0684C2.59561 78.562 3.19526 78.5331 3.19526 78.5331C3.19526 78.5331 2.95064 78.1314 3.837 77.8133C4.72337 77.4951 9.45831 75.9585 11.567 76.0638C13.6758 76.1693 18.2448 77.3519 18.2448 77.3519C18.2448 77.3519 19.3413 82.4476 18.2141 83.0462Z" fill="#C26E5E"/>
<path d="M1.38745 81.4647L1.44651 81.6828L1.87435 81.567C4.49127 80.8616 6.44482 80.408 7.73335 80.2063L7.81555 80.1936L7.7819 79.9705L7.65695 79.9899C6.30213 80.2053 4.24181 80.6891 1.47417 81.4414L1.38745 81.4647Z" fill="#995B5D"/>
<path d="M2.01111 79.8066L2.06765 80.0266L2.47722 79.9094C4.98246 79.1969 6.85264 78.7387 8.08617 78.5349L8.16487 78.5221L8.13265 78.2968L8.01303 78.3164C6.71604 78.5339 4.74364 79.0227 2.09413 79.7828L2.01111 79.8066Z" fill="#995B5D"/>
<path d="M3.27295 78.3574L3.32328 78.5774L3.6879 78.4603C5.91817 77.7477 7.58309 77.2896 8.68124 77.0858L8.7513 77.073L8.72262 76.8477L8.61613 76.8672C7.46148 77.0848 5.70557 77.5736 3.34685 78.3336L3.27295 78.3574Z" fill="#995B5D"/>
<path fill-rule="evenodd" clip-rule="evenodd" d="M56.1186 22.7422C56.1186 22.7422 55.8416 28.8455 52.289 31C49.0657 32.9547 55.8946 44.2974 63.2408 43.6208C67.262 43.2504 68.2045 32.2302 68.2045 32.2302C68.2045 32.2302 64.9575 31.6014 66.1569 26.6394L56.1186 22.7422Z" fill="#C26E5E"/>
<path fill-rule="evenodd" clip-rule="evenodd" d="M62.0155 28.9397C57.2531 28.3625 53.8161 25.2244 53.3348 20.0187C51.9503 20.2396 51.6237 16.6244 52.0093 15.463C52.3953 14.3 53.6551 14.9801 53.6551 14.9801C53.6551 14.9801 53.7597 14.7044 53.8329 14.4028C55.9134 5.85089 61.7403 6.19006 61.7403 6.19006C72.4474 6.74907 69.9386 17.704 69.3269 20.6102C68.7151 23.5168 66.6193 29.4971 62.0155 28.9397Z" fill="#C26E5E"/>
<path fill-rule="evenodd" clip-rule="evenodd" d="M11.9431 75.9271C11.9431 75.9271 29.4052 47.2141 35.7092 40.4166C42.0132 33.6192 41.153 32.1208 52.1164 31.1506C52.1164 31.1506 51.7486 37.2178 58.8507 38.4174C65.9527 39.6169 67.2672 32.4972 66.5301 30.939C66.5301 30.939 76.4263 33.9191 80.4861 37.2179C84.5453 40.5166 110.663 75.5511 110.663 75.5511L104.625 81.9704C104.625 81.9704 76.9747 49.863 76.536 52.1721C76.1111 54.4074 81.3979 77.6383 80.6144 79.4324C80.5882 79.4917 80.5559 79.5276 80.5161 79.5386C79.8017 79.7365 71.4676 84.0333 59.9923 84.0333C48.5169 84.0333 40.7892 81.9704 40.7892 81.9396C40.7892 81.9396 46.1411 53.712 44.6061 52.5022C43.0709 51.2924 24.966 79.0808 18.6027 81.2954L11.9431 75.9271Z" fill="#151391"/>
<path fill-rule="evenodd" clip-rule="evenodd" d="M113.937 81.1981L113.933 81.2443C113.917 81.2289 113.9 81.2135 113.882 81.1997C113.9 81.1997 113.918 81.1989 113.937 81.1981Z" fill="#C26E5E"/>
<path d="M65.1517 16.373L65.4376 16.465L65.4096 16.5547C65.3871 16.6279 65.3621 16.7116 65.3351 16.8045C65.258 17.0701 65.1808 17.3553 65.1088 17.6488C65.0287 17.9751 64.9601 18.2915 64.9065 18.5903L64.8909 18.6788C64.7605 19.4386 64.7421 20.0189 64.8586 20.3309L64.8655 20.3486C65.5317 22.0004 64.627 22.8381 62.728 22.2515L62.6702 22.2333L62.7617 21.9468C64.4722 22.4953 65.1582 21.8773 64.5871 20.4613C64.4299 20.0716 64.4542 19.4102 64.611 18.537C64.6659 18.2315 64.7358 17.9091 64.8172 17.577C64.8822 17.3122 64.9513 17.0542 65.0208 16.8109L65.0469 16.7204C65.0626 16.6665 65.0776 16.6156 65.0919 16.5679L65.1285 16.4473L65.1517 16.373Z" fill="black"/>
<path d="M57.7677 27.8907L57.9146 27.6284L57.9682 27.6577L58.0173 27.6838C58.0918 27.7231 58.1765 27.7664 58.2707 27.8128L58.3116 27.8329C58.6284 27.9875 58.9787 28.1422 59.3523 28.2866C60.2114 28.6186 61.0603 28.8452 61.8501 28.9187C62.2081 28.952 62.5473 28.9528 62.8649 28.9187L62.9282 28.9114L62.9649 29.21C62.6065 29.2542 62.2246 29.2557 61.8224 29.2182C61.0015 29.1418 60.1272 28.9084 59.2443 28.5673C58.8623 28.4197 58.5042 28.2616 58.1802 28.1034L58.0576 28.0427C58.0055 28.0165 57.9566 27.9914 57.911 27.9676L57.8261 27.9226L57.7677 27.8907Z" fill="black"/>
<path fill-rule="evenodd" clip-rule="evenodd" d="M63.0136 24.8449C61.6456 24.4776 60.7822 23.5727 60.7418 23.5297C60.6565 23.4391 60.6608 23.2963 60.7513 23.2108C60.8417 23.1254 60.9842 23.1296 61.0695 23.2203C61.0866 23.2383 62.1031 24.2931 63.6111 24.5077C63.7334 24.5251 63.8198 24.6394 63.8024 24.7628C63.785 24.8862 63.6709 24.972 63.5479 24.9544C63.3625 24.9282 63.184 24.8907 63.0136 24.8449Z" fill="black"/>
<path fill-rule="evenodd" clip-rule="evenodd" d="M63.838 22.4417C63.5346 22.4417 63.1561 22.3822 62.6837 22.2307L62.7751 21.9442C63.6549 22.2263 64.3048 22.2032 64.6051 21.8792C64.8605 21.6034 64.8589 21.099 64.6007 20.4588C64.4254 20.0245 64.4687 19.2008 64.7294 18.0104C64.9201 17.1393 65.1628 16.3781 65.1652 16.3705L65.451 16.4624C65.1878 17.2846 64.5721 19.5854 64.8789 20.3461C65.269 21.3131 65.065 21.8248 64.825 22.0838C64.6539 22.2687 64.3553 22.4417 63.838 22.4417Z" fill="black"/>
<path fill-rule="evenodd" clip-rule="evenodd" d="M62.5775 16.2193C62.5324 16.2193 62.4865 16.2118 62.4415 16.1961C62.0036 16.043 60.7385 15.636 60.1523 15.5925C59.6002 15.5515 58.758 15.8248 58.48 15.9336C58.2677 16.0167 58.0284 15.9117 57.9454 15.6991C57.8623 15.4864 57.9669 15.2467 58.179 15.1633C58.2267 15.1446 59.3596 14.7041 60.2132 14.7675C61.0278 14.8279 62.6451 15.3911 62.7135 15.4151C62.9287 15.4904 63.0423 15.7262 62.9672 15.9419C62.9078 16.1125 62.7482 16.2193 62.5775 16.2193Z" fill="black"/>
<path fill-rule="evenodd" clip-rule="evenodd" d="M69.4707 17.6267C69.388 17.6267 69.3045 17.6013 69.2327 17.5485C69.0031 17.38 68.2943 16.9237 67.7792 16.8374C67.2294 16.7453 65.9648 16.8494 65.5238 16.8972C65.3026 16.9209 65.1038 16.7609 65.0799 16.5393C65.0559 16.3175 65.2158 16.1183 65.437 16.0943C65.5062 16.0868 67.1406 15.9117 67.912 16.0409C68.7231 16.1768 69.6696 16.8681 69.7096 16.8975C69.8888 17.0295 69.9275 17.2822 69.7958 17.4619C69.7168 17.5696 69.5946 17.6267 69.4707 17.6267Z" fill="black"/>
<path fill-rule="evenodd" clip-rule="evenodd" d="M61.7669 18.3939C61.7124 18.3939 61.658 18.3743 61.6147 18.3345C61.6119 18.3319 61.2406 18.0016 60.7047 18.0216C60.1502 18.0422 59.7821 18.314 59.7784 18.3168C59.6792 18.3912 59.5382 18.3717 59.4635 18.2727C59.3887 18.1736 59.4074 18.0331 59.5059 17.9576C59.5251 17.9429 59.9845 17.5968 60.6881 17.5707C61.4122 17.5446 61.8988 17.9834 61.9191 18.0021C62.0108 18.0863 62.0169 18.2291 61.9328 18.3208C61.8884 18.3693 61.8277 18.3939 61.7669 18.3939Z" fill="black"/>
<path fill-rule="evenodd" clip-rule="evenodd" d="M68.0579 19.0541C68.0035 19.0541 67.949 19.0344 67.9058 18.9947C67.903 18.9921 67.5317 18.6613 66.9957 18.6818C66.4427 18.7022 66.074 18.9735 66.0704 18.9762C65.9716 19.052 65.8303 19.033 65.7548 18.934C65.6793 18.8351 65.6981 18.6934 65.7969 18.6178C65.8161 18.603 66.2756 18.2569 66.9792 18.2308C67.703 18.2049 68.1899 18.6435 68.2102 18.6622C68.3018 18.7465 68.308 18.8892 68.2239 18.981C68.1795 19.0295 68.1188 19.0541 68.0579 19.0541Z" fill="black"/>
<mask id="mask0_636_3303" style="mask-type:alpha" maskUnits="userSpaceOnUse" x="37" y="4" width="40" height="36">
<path fill-rule="evenodd" clip-rule="evenodd" d="M37.9922 4.07336H76.7291V39.5905H37.9922V4.07336Z" fill="white"/>
</mask>
<g mask="url(#mask0_636_3303)">
<path fill-rule="evenodd" clip-rule="evenodd" d="M67.4784 39.1668C65.4987 39.7872 67.0777 34.3731 66.2965 33.1005C65.5152 31.828 64.8053 28.9378 65.9287 27.5675C67.0514 26.1972 69.2308 22.5595 69.5384 19.5324C69.8454 16.506 69.2795 15.1019 69.2795 15.1019C69.2795 15.1019 67.0769 15.9043 65.1408 14.0986C63.9663 13.0028 61.6564 12.1876 59.9191 10.6376C59.9048 11.3084 59.7014 12.35 58.638 12.6892C57.0253 13.2037 57.1236 15.3937 53.739 15.0334C53.739 15.0334 52.0498 14.1415 51.9192 16.2721C51.7893 18.4035 52.4227 19.8911 53.3706 19.9904C53.3706 19.9904 54.5578 20.3634 54.2621 21.9804C53.9664 23.5966 56.0925 24.7051 55.736 26.7763C55.3795 28.8476 54.3822 29.4906 55.0944 31.3475C55.8073 33.2043 56.0482 35.3748 55.1799 37.2392C54.3124 39.1036 49.577 36.1126 47.7211 37.5686C45.8652 39.0239 45.7039 38.1342 43.3639 36.8406C41.024 35.547 38.5145 37.3234 38.5325 34.8687C38.5588 31.3527 37.0698 28.9965 38.9257 27.3795C40.7816 25.7625 40.534 24.1712 41.3565 22.2624C42.5287 19.5414 44.7786 19.3556 45.1823 17.2536C45.5853 15.1508 46.5301 12.7043 49.0959 11.073C51.9762 9.24323 53.6115 4.09076 57.2422 5.54603C57.3975 5.60845 57.5446 5.67388 57.6835 5.74156C57.7397 4.96994 58.193 3.84709 60.4234 4.11332C63.7554 4.51117 69.7073 5.06771 70.6589 8.16926C71.6112 11.2701 71.3733 13.7354 72.6431 16.7572C73.9121 19.779 71.6908 20.9718 72.7219 22.9596C73.7538 24.9473 75.7372 27.0945 75.5789 29.1619C75.4198 31.2294 74.3887 33.8541 76.1342 36.0013C77.8798 38.1477 75.4198 39.7383 73.4363 39.5797C71.4529 39.4202 69.4581 38.5471 67.4784 39.1668Z" fill="#711515"/>
</g>
<path fill-rule="evenodd" clip-rule="evenodd" d="M171.338 171.01L172.085 176.666L167.467 177.601L165.415 171.899L171.338 171.01Z" fill="#ECAFA3"/>
<path fill-rule="evenodd" clip-rule="evenodd" d="M143.799 156.135L140.587 156.114L146.504 164.968L149.209 161.883L143.799 156.135Z" fill="#ECAFA3"/>
<path fill-rule="evenodd" clip-rule="evenodd" d="M152.714 164.531C153.018 164.531 153.923 163.506 155.24 161.76L157.05 172.194C168.69 173.958 173.561 170.567 173.561 170.567L170.14 139.575C175.379 131.388 180.116 123.127 182.138 120.161C188.283 111.148 186.969 70.3149 186.969 70.3149C178.436 70.5482 152.501 70.3149 152.501 70.3149C152.501 70.3149 150.493 112.789 150.493 116.544C150.493 120.3 152.575 136.296 152.575 136.296C152.575 136.296 142.166 153.821 142.86 155.491C143.553 157.159 150.91 164.531 152.714 164.531Z" fill="#484849"/>
<path d="M167.636 85.8617L167.623 85.8623C167.496 85.8712 167.401 85.9813 167.41 86.1082L167.425 86.3479C167.431 86.434 167.436 86.5297 167.442 86.6345L167.458 86.9137C167.477 87.2734 167.496 87.6727 167.514 88.1082C167.708 92.7994 167.662 97.901 167.209 102.695C166.685 108.234 165.667 112.651 164.065 115.52L162.176 118.911L160.018 122.791C158.658 125.239 157.236 127.803 155.805 130.384L152.479 136.391C152.418 136.502 152.458 136.642 152.569 136.704C152.676 136.763 152.81 136.728 152.874 136.626L156.039 130.911C157.481 128.309 158.916 125.722 160.29 123.248L162.36 119.525C163.112 118.175 163.816 116.911 164.467 115.745C166.106 112.807 167.137 108.336 167.666 102.738C168.122 97.9204 168.168 92.7994 167.973 88.0891L167.962 87.8311C167.944 87.4083 167.924 87.0224 167.905 86.6769L167.884 86.3194L167.868 86.0758C167.86 85.9535 167.757 85.8603 167.636 85.8617Z" fill="black"/>
<path d="M165.023 146.329C164.919 146.264 164.784 146.292 164.714 146.391L164.706 146.402L155.175 161.686C155.107 161.793 155.14 161.936 155.248 162.003C155.351 162.068 155.487 162.039 155.557 161.941L155.564 161.93L165.096 146.647C165.163 146.539 165.13 146.397 165.023 146.329Z" fill="black"/>
<path fill-rule="evenodd" clip-rule="evenodd" d="M166.979 176.546C166.979 176.546 166.37 176.423 166.37 176.957C166.37 177.49 166.979 180.811 166.391 183.449C165.803 186.088 162.386 189.511 170.731 189.624C179.076 189.736 177.144 186.481 176.164 185.217C175.184 183.954 173.094 180.955 172.618 179.103C172.142 177.251 172.411 175.703 171.879 175.451C171.879 175.451 169.471 176.489 166.979 176.546Z" fill="#787878"/>
<path fill-rule="evenodd" clip-rule="evenodd" d="M176.822 188.402C175.356 189.622 172.871 190.095 168.87 189.622C164.869 189.149 164.795 187.605 165.416 186.136C165.416 186.136 172.424 186.98 176.189 185.238C176.189 185.238 178.288 187.181 176.822 188.402Z" fill="#787878"/>
<path fill-rule="evenodd" clip-rule="evenodd" d="M147.508 163.819C147.508 163.819 147.988 164.045 147.48 164.724C146.972 165.402 146.408 167.015 145.469 170.417C144.529 173.818 144.267 175.284 144.006 179.68C143.745 184.076 144.163 190.198 140.664 188.367C137.165 186.535 135.86 180.569 136.487 176.959C137.113 173.348 138.471 169.632 137.323 165.079C136.174 160.527 135.338 157.648 137.949 156.758C140.56 155.869 142.988 155.091 143.001 156.029C143.001 156.029 142.879 161.697 147.508 163.819Z" fill="#787878"/>
<path fill-rule="evenodd" clip-rule="evenodd" d="M136.309 181.471C136.309 181.471 137.297 189.232 141.993 189.026C141.993 189.026 143.724 189.563 143.806 182.998C143.806 182.998 143.559 186.095 136.309 181.471Z" fill="#787878"/>
<mask id="mask1_636_3303" style="mask-type:alpha" maskUnits="userSpaceOnUse" x="136" y="156" width="5" height="9">
<path fill-rule="evenodd" clip-rule="evenodd" d="M140.088 156.275H136.025V164.525H140.088V156.275Z" fill="white"/>
</mask>
<g mask="url(#mask1_636_3303)">
<path fill-rule="evenodd" clip-rule="evenodd" d="M139.964 156.275C139.964 156.275 141.02 161.728 136.963 164.525C136.963 164.525 135.556 159.988 136.188 158.484C136.822 156.98 137.76 156.909 139.964 156.275Z" fill="#787878"/>
</g>
<path fill-rule="evenodd" clip-rule="evenodd" d="M173.681 20.1141C173.681 20.1141 173.963 26.3435 177.589 28.5424C180.879 30.5375 173.909 42.1144 166.411 41.4239C162.307 41.0458 161.345 29.7981 161.345 29.7981C161.345 29.7981 164.659 29.1563 163.435 24.0918L173.681 20.1141Z" fill="#ECAFA3"/>
<path fill-rule="evenodd" clip-rule="evenodd" d="M167.663 26.4398C172.523 25.8506 176.031 22.6478 176.523 17.3346C177.936 17.56 178.269 13.8702 177.875 12.6848C177.481 11.4978 176.196 12.1919 176.196 12.1919C176.196 12.1919 176.089 11.9105 176.014 11.6027C173.891 2.87419 167.943 3.22038 167.943 3.22038C157.015 3.79092 159.576 14.9721 160.2 17.9383C160.825 20.9049 162.964 27.0086 167.663 26.4398Z" fill="#ECAFA3"/>
<path fill-rule="evenodd" clip-rule="evenodd" d="M199.993 47.0938C199.993 47.0938 213.375 67.6039 208.437 71.9819C203.498 76.36 189.595 61.3304 189.595 61.3304C189.595 61.3304 190.311 57.9746 193.294 54.0078C196.278 50.0408 199.993 47.0938 199.993 47.0938Z" fill="#ECAFA3"/>
<path fill-rule="evenodd" clip-rule="evenodd" d="M145.799 57.1867L152.116 56.4498C152.116 56.4498 150.5 78.2405 151.107 78.2405C151.434 78.2405 159.022 82.3633 169.655 82.3633C177.824 82.3633 187.844 79.656 188.268 79.6329C188.32 79.6299 188.371 79.5946 188.419 79.5293C188.283 78.0263 188.175 75.3689 188.065 72.4343C187.988 70.3756 187.91 68.181 187.821 66.1538C187.737 64.2678 187.644 62.5269 187.531 61.1744C187.041 55.2753 187.38 49.8921 187.38 49.8921L189.799 56.4705L205.134 50.8716C205.134 50.8716 200.013 43.3928 193.908 36.8882C187.852 30.4341 178.138 28.7968 177.987 28.7723C177.986 28.7715 177.985 28.7715 177.985 28.7715C177.985 28.7715 178.53 37.6757 169.341 38.3596C161.701 38.9284 161.305 29.7509 161.305 29.7509C161.305 29.7509 152.374 32.0875 149.811 34.2775C147.249 36.4675 135.946 51.4196 135.946 51.7973C135.946 52.175 145.799 57.1867 145.799 57.1867Z" fill="black"/>
<path d="M183.979 135.998L186.405 136.066L187.969 40.8907L185.543 40.8231L183.979 135.998Z" fill="#B5BEC5"/>
<path d="M184.617 41.9804L188.6 42.0913L189.05 25.9259C189.052 25.8443 188.988 25.7762 188.906 25.7739L185.22 25.6712C185.138 25.669 185.07 25.7333 185.068 25.815L184.617 41.9804Z" fill="#151391"/>
<path d="M194.915 140.172C195.958 142.484 196.83 148.516 195.862 150.852C195.862 150.852 186.148 161.463 179.847 162.799C179.847 162.799 158.007 151.284 157.944 150.094C157.944 150.094 159.772 143.018 166.631 137.161L171.096 131.867C171.895 130.92 173.101 130.417 174.335 130.517C176.503 130.693 179.982 131.151 182.489 132.332C183.367 132.747 184.253 133.144 185.157 133.499C187.244 134.319 190.812 135.877 193.04 137.708C193.848 138.372 194.485 139.218 194.915 140.172L194.915 140.172Z" fill="#5785B7"/>
<path d="M157.944 150.094C157.944 150.094 160.489 142.354 166.459 136.561C167.712 135.344 168.953 134.115 170.158 132.851L171.096 131.867C171.895 130.92 173.101 130.417 174.335 130.517C176.503 130.693 179.982 131.15 182.489 132.333C183.367 132.747 184.253 133.144 185.157 133.499C187.244 134.319 190.812 135.877 193.04 137.708C193.596 138.165 194.072 138.709 194.454 139.314C194.241 140.226 193.722 141.327 192.615 142.529C190.204 145.146 183.341 155.555 180.126 162.735C180.033 162.758 179.94 162.78 179.848 162.8C179.848 162.8 158.008 151.284 157.944 150.094L157.944 150.094Z" fill="#75A6D1"/>
<path d="M172.83 131.718C183.072 132.328 193.236 139.63 193.236 139.63C186.166 147.282 180.722 158.823 179.121 162.415C178.844 162.268 178.493 162.082 178.083 161.863C178.002 161.82 177.919 161.775 177.833 161.73C177.555 161.581 177.253 161.42 176.931 161.248C176.428 160.979 175.875 160.682 175.283 160.364C175.12 160.276 174.955 160.187 174.786 160.096C174.306 159.837 173.804 159.565 173.287 159.285C173.132 159.201 172.976 159.116 172.819 159.031C167.822 156.316 161.571 152.835 159.062 151.093C159.027 151.069 158.994 151.045 158.961 151.022C158.799 150.908 158.655 150.802 158.529 150.705C161.515 144.023 172.83 131.718 172.83 131.718Z" fill="#5785B7"/>
<path d="M158.529 150.706C161.515 144.023 172.83 131.718 172.83 131.718L173.606 138.76L158.529 150.706Z" fill="#4477A2"/>
<path d="M193.236 139.63L189.244 144.543L188.718 145.277L173.606 138.76L172.83 131.719C172.83 131.719 182.119 131.653 193.236 139.63Z" fill="#416391"/>
<path d="M179.121 162.415L177.995 163.396L157.367 151.374L158.529 150.705L179.121 162.415Z" fill="#151391"/>
<path d="M158.828 150.073L179.348 161.909L179.121 162.415L158.529 150.705L158.828 150.073Z" fill="#151391"/>
<path d="M187.031 134.831L183.729 133.452C183.251 133.438 182.871 133.037 182.884 132.559L183.034 127.177C183.048 126.7 183.449 126.32 183.927 126.333L187.229 127.712C187.707 127.726 188.087 128.127 188.073 128.605L187.923 133.987C187.91 134.464 187.508 134.844 187.031 134.831Z" fill="#151391"/>
<path fill-rule="evenodd" clip-rule="evenodd" d="M190.854 52.0557C190.854 52.0557 194.414 55.842 194 55C194.5 56 194.355 55.4349 194 55C194.789 55.8303 195.431 55.8119 192.945 59.0147C190.459 62.2174 189.631 61.9406 188.605 61.387C187.579 60.8334 187.461 60.4381 185.527 60.2404C183.594 60.0427 181.74 58.1448 181.779 57.6703L181.819 57.1958C181.819 57.1958 180.043 56.5236 180.162 55.7724C180.28 55.0211 180.793 55.1002 180.793 55.1002C180.793 55.1002 180.438 54.7443 180.714 54.1117C180.99 53.4791 182.292 53.5977 183.791 53.7954C185.291 53.9931 189.157 54.7839 189.394 54.6257C189.631 54.4676 189.552 54.2304 188.644 54.1117C187.737 53.9931 184.068 53.9536 184.068 52.9255C184.068 51.8974 185.172 51.6998 187.303 51.7393C189.433 51.7789 189.828 51.6602 190.341 51.858L190.854 52.0557Z" fill="#ECAFA3"/>
<path fill-rule="evenodd" clip-rule="evenodd" d="M180.703 55.1046C180.703 55.1046 180.59 55.0226 181.434 55.3457C181.742 55.4633 182.175 55.586 182.786 55.7021C185.074 56.137 188.665 56.9279 189.769 57.086C190.874 57.2442 189.967 57.4814 187.442 56.9674C184.916 56.4533 181.91 55.7638 181.775 55.7187C181.546 55.6419 180.856 55.4116 180.703 55.1046Z" fill="black"/>
<path fill-rule="evenodd" clip-rule="evenodd" d="M182 56.9999C182 56.9999 183.868 57.629 184.787 57.8593C185.763 58.1037 186.471 58.2397 186.471 58.2397L186.667 58.3116C186.667 58.3116 187.391 58.5007 187.563 58.542C187.87 58.6157 188.471 58.7397 188.471 58.7397C188.471 58.7397 188.464 58.9612 186.625 58.5774C186.169 58.4823 185.323 58.3472 184.787 58.1936C184.294 58.0524 182.513 57.5931 182.276 57.3953C182.04 57.1976 182 56.9999 182 56.9999Z" fill="black"/>
<path fill-rule="evenodd" clip-rule="evenodd" d="M146.913 56.7319C146.913 56.7319 142.923 67.8465 137.564 64.6318C132.206 61.4169 129.01 57.2667 120.869 47.595C117.67 43.7953 109.686 34.5544 111.505 33.644C112.516 33.1379 119.491 38.9281 123.349 41.1327C124.486 41.7822 134.452 50.1233 135.461 50.177C136.47 50.2307 146.913 56.7319 146.913 56.7319Z" fill="#ECAFA3"/>
<path fill-rule="evenodd" clip-rule="evenodd" d="M123.956 40.8987C123.956 40.8987 124.792 39.2145 120.913 36.042C118.865 34.3679 117.089 30.263 116.092 31.0738C115.094 31.8847 117.685 36.6788 117.685 36.6788C117.685 36.6788 115.216 34.7728 113.671 32.5784C112.126 30.3842 110.711 28.613 110.711 28.613C110.711 28.613 109.576 28.0038 109.59 29.1056C109.604 30.2075 109.938 30.5316 109.938 30.5316C109.938 30.5316 109.093 30.4027 109.144 31.2434C109.194 32.0839 109.361 32.2461 109.361 32.2461C109.361 32.2461 108.732 32.2281 108.777 32.9638C108.821 33.6992 109.266 34.1315 109.266 34.1315C109.266 34.1315 108.804 34.2757 109.274 35.1283C109.744 35.9808 112.365 40.4087 114.069 41.7684C115.773 43.1281 120.113 45.3344 120.113 45.3344C120.113 45.3344 124.422 42.1335 123.956 40.8987Z" fill="#ECAFA3"/>
<path fill-rule="evenodd" clip-rule="evenodd" d="M114.076 38.6345C114.022 38.6015 112.738 37.8049 111.28 35.8194C109.971 34.0358 109.544 34.1929 109.54 34.1954C109.54 34.1954 109.544 34.1936 109.55 34.1882L109.409 34.0037C109.427 33.9894 109.499 33.9436 109.636 33.9628C109.926 34.0035 110.478 34.3348 111.467 35.6811C112.898 37.63 114.184 38.4276 114.197 38.4353L114.076 38.6345Z" fill="black"/>
<path fill-rule="evenodd" clip-rule="evenodd" d="M114.637 37.5602C114.633 37.5574 114.272 37.2712 113.29 36.526C112.591 35.996 111.685 34.7618 111.023 33.8606C110.725 33.4549 110.468 33.1046 110.301 32.9155C109.807 32.354 109.382 32.3536 109.378 32.3538L109.369 32.1209C109.39 32.1202 109.901 32.1089 110.475 32.7613C110.648 32.958 110.908 33.3122 111.21 33.7224C111.863 34.6121 112.758 35.8306 113.429 36.3401C114.414 37.0872 114.777 37.3746 114.781 37.3773L114.637 37.5602Z" fill="black"/>
<path fill-rule="evenodd" clip-rule="evenodd" d="M115.022 36.6786C115.009 36.6682 113.653 35.624 112.701 34.565C111.811 33.574 111.039 32.1987 110.625 31.4599L110.53 31.2901C110.192 30.6914 109.926 30.6327 109.924 30.6323L109.957 30.4018C109.994 30.4066 110.333 30.4693 110.731 31.1753L110.827 31.3457C111.237 32.0766 112 33.4371 112.874 34.4089C113.811 35.4522 115.15 36.4832 115.163 36.4935L115.022 36.6786Z" fill="black"/>
<path fill-rule="evenodd" clip-rule="evenodd" d="M119.983 38.255C119.975 38.2487 119.22 37.6215 118.649 37.4735C118.014 37.3091 117.598 36.7764 117.581 36.7539L117.765 36.6114C117.768 36.6163 118.151 37.1039 118.707 37.2479C119.329 37.4091 120.099 38.0489 120.131 38.076L119.983 38.255Z" fill="black"/>
<path d="M164.451 13.6212L164.159 13.715L164.187 13.8066C164.21 13.8813 164.236 13.9668 164.263 14.0616C164.342 14.3326 164.421 14.6237 164.494 14.9233C164.576 15.2564 164.646 15.5793 164.701 15.8843L164.717 15.9746C164.85 16.7501 164.869 17.3424 164.75 17.6608L164.743 17.6789C164.063 19.3648 164.986 20.2197 166.924 19.6211L166.983 19.6025L166.89 19.31C165.144 19.8699 164.444 19.2391 165.027 17.7939C165.187 17.3962 165.163 16.7211 165.002 15.8299C164.946 15.5181 164.875 15.1889 164.792 14.85C164.726 14.5797 164.655 14.3164 164.584 14.0681L164.558 13.9758C164.542 13.9207 164.526 13.8688 164.512 13.8201L164.474 13.697L164.451 13.6212Z" fill="black"/>
<path d="M171.988 25.3766L171.838 25.1089L171.783 25.1387L171.733 25.1655C171.657 25.2055 171.571 25.2497 171.474 25.2971L171.433 25.3176C171.109 25.4754 170.752 25.6333 170.37 25.7807C169.494 26.1195 168.627 26.3508 167.821 26.4258C167.456 26.4598 167.11 26.4606 166.785 26.4258L166.721 26.4183L166.683 26.7231C167.049 26.7682 167.439 26.7698 167.849 26.7315C168.687 26.6535 169.58 26.4153 170.481 26.0672C170.871 25.9165 171.236 25.7551 171.567 25.5936L171.692 25.5317C171.745 25.505 171.795 25.4794 171.842 25.4551L171.928 25.4092L171.988 25.3766Z" fill="black"/>
<path fill-rule="evenodd" clip-rule="evenodd" d="M166.649 22.2698C168.045 21.895 168.926 20.9714 168.967 20.9275C169.054 20.835 169.05 20.6892 168.958 20.6019C168.865 20.5148 168.72 20.5191 168.633 20.6117C168.615 20.63 167.578 21.7067 166.039 21.9257C165.914 21.9434 165.826 22.0601 165.844 22.186C165.861 22.3119 165.978 22.3996 166.103 22.3816C166.293 22.3548 166.475 22.3165 166.649 22.2698Z" fill="black"/>
<path fill-rule="evenodd" clip-rule="evenodd" d="M165.798 19.8149C166.107 19.8149 166.494 19.7542 166.976 19.5996L166.883 19.3072C165.985 19.5951 165.321 19.5716 165.015 19.2408C164.754 18.9594 164.756 18.4445 165.019 17.7912C165.198 17.3479 165.154 16.5071 164.888 15.2922C164.693 14.4031 164.446 13.6262 164.443 13.6184L164.151 13.7122C164.42 14.5514 165.048 16.8997 164.735 17.6761C164.337 18.6631 164.545 19.1853 164.79 19.4497C164.965 19.6384 165.27 19.8149 165.798 19.8149Z" fill="black"/>
<path fill-rule="evenodd" clip-rule="evenodd" d="M167.102 13.4699C167.148 13.4699 167.195 13.4622 167.24 13.4462C167.687 13.2899 168.979 12.8745 169.577 12.8301C170.14 12.7883 171 13.0672 171.284 13.1783C171.5 13.263 171.745 13.156 171.829 12.939C171.914 12.7219 171.807 12.4772 171.591 12.392C171.542 12.3729 170.386 11.9233 169.515 11.9881C168.683 12.0498 167.033 12.6246 166.963 12.649C166.743 12.7259 166.627 12.9666 166.704 13.1867C166.765 13.3608 166.927 13.4699 167.102 13.4699Z" fill="black"/>
<path fill-rule="evenodd" clip-rule="evenodd" d="M160.05 14.9006C160.134 14.9006 160.219 14.8747 160.292 14.8208C160.527 14.6489 161.25 14.1832 161.776 14.095C162.337 14.0011 163.628 14.1073 164.078 14.1561C164.304 14.1802 164.507 14.017 164.531 13.7908C164.556 13.5645 164.392 13.3611 164.167 13.3366C164.096 13.329 162.428 13.1503 161.64 13.2821C160.813 13.4208 159.847 14.1264 159.806 14.1564C159.623 14.2911 159.583 14.549 159.718 14.7325C159.798 14.8424 159.923 14.9006 160.05 14.9006Z" fill="black"/>
<path fill-rule="evenodd" clip-rule="evenodd" d="M167.904 15.6857C167.96 15.6857 168.016 15.6657 168.06 15.6251C168.063 15.6225 168.442 15.2853 168.989 15.3058C169.555 15.3267 169.93 15.6042 169.934 15.607C170.035 15.683 170.179 15.663 170.255 15.562C170.332 15.4609 170.313 15.3174 170.212 15.2404C170.193 15.2254 169.724 14.8721 169.006 14.8455C168.266 14.8189 167.77 15.2667 167.749 15.2858C167.656 15.3718 167.649 15.5175 167.735 15.6111C167.78 15.6606 167.842 15.6857 167.904 15.6857Z" fill="black"/>
<path fill-rule="evenodd" clip-rule="evenodd" d="M161.491 16.3614C161.546 16.3614 161.602 16.3413 161.646 16.3007C161.649 16.2981 162.028 15.9605 162.575 15.9814C163.139 16.0023 163.516 16.2792 163.519 16.2819C163.62 16.3592 163.764 16.3399 163.842 16.2389C163.919 16.1378 163.899 15.9933 163.799 15.9161C163.779 15.901 163.31 15.5477 162.592 15.5211C161.853 15.4947 161.356 15.9423 161.335 15.9614C161.242 16.0474 161.236 16.1931 161.321 16.2868C161.367 16.3363 161.429 16.3614 161.491 16.3614Z" fill="black"/>
<mask id="mask2_636_3303" style="mask-type:alpha" maskUnits="userSpaceOnUse" x="157" y="0" width="21" height="17">
<path fill-rule="evenodd" clip-rule="evenodd" d="M177.464 0H157.009V16.0633H177.464V0Z" fill="white"/>
</mask>
<g mask="url(#mask2_636_3303)">
<path fill-rule="evenodd" clip-rule="evenodd" d="M176.006 13.135C176.006 13.135 178.763 9.68078 176.695 4.92163C174.627 0.162485 169.878 -0.528359 167.044 0.469526C167.044 0.469526 157.163 -2.37061 157.01 5.91952C156.885 12.6889 166.661 7.3012 166.661 7.3012C166.661 7.3012 166.661 11.2927 170.567 10.8322C174.474 10.3716 174.474 16.3589 175.163 16.0519C175.853 15.7448 176.006 13.135 176.006 13.135Z" fill="#9B5120"/>
</g>
<path fill-rule="evenodd" clip-rule="evenodd" d="M172.371 14.7718C172.371 13.1526 171.061 11.8398 169.445 11.8398C167.829 11.8398 166.519 13.1526 166.519 14.7718C166.519 16.3911 167.829 17.7037 169.445 17.7037C171.061 17.7037 172.371 16.3911 172.371 14.7718ZM167.209 14.7718C167.209 13.5341 168.21 12.5307 169.445 12.5307C170.68 12.5307 171.681 13.5341 171.681 14.7718C171.681 16.0095 170.68 17.0129 169.445 17.0129C168.21 17.0129 167.209 16.0095 167.209 14.7718Z" fill="black"/>
<path fill-rule="evenodd" clip-rule="evenodd" d="M165.179 15.4794C165.179 13.8602 163.87 12.5475 162.254 12.5475C160.638 12.5475 159.328 13.8601 159.328 15.4794C159.328 17.0987 160.638 18.4114 162.254 18.4114C163.87 18.4114 165.179 17.0987 165.179 15.4794ZM160.017 15.4794C160.017 14.2417 161.019 13.2383 162.254 13.2383C163.489 13.2383 164.49 14.2417 164.49 15.4794C164.49 16.7171 163.489 17.7205 162.254 17.7205C161.019 17.7205 160.017 16.7172 160.017 15.4794Z" fill="black"/>
<path d="M176.198 12.6671C176.13 12.4951 175.939 12.4089 175.766 12.4688L175.75 12.4746L171.92 14.0098C171.744 14.0807 171.658 14.2817 171.728 14.4588C171.797 14.6308 171.988 14.717 172.161 14.6571L172.176 14.6513L176.006 13.1161C176.183 13.0452 176.269 12.8442 176.198 12.6671Z" fill="black"/>
<path d="M167.102 14.9139C167.081 14.7297 166.92 14.5956 166.737 14.6074L166.721 14.6088L164.713 14.8328C164.524 14.8539 164.387 15.0247 164.408 15.2143C164.429 15.3985 164.59 15.5327 164.773 15.5209L164.789 15.5194L166.797 15.2954C166.987 15.2743 167.123 15.1035 167.102 14.9139Z" fill="black"/>
</svg>
