<svg width="23" height="23" viewBox="0 0 23 23" fill="none" xmlns="http://www.w3.org/2000/svg">
<g filter="url(#filter0_i_1_260)">
<path fill-rule="evenodd" clip-rule="evenodd" d="M23 11.5C23 17.8513 17.8513 23 11.5 23C5.14872 23 0 17.8513 0 11.5C0 5.14872 5.14872 0 11.5 0C17.8513 0 23 5.14872 23 11.5ZM14.375 7.1875C14.375 8.77532 13.0879 10.0625 11.5 10.0625C9.91218 10.0625 8.625 8.77532 8.625 7.1875C8.625 5.59968 9.91218 4.3125 11.5 4.3125C13.0879 4.3125 14.375 5.59968 14.375 7.1875ZM11.4999 12.9375C8.59969 12.9375 6.10066 14.6553 4.96475 17.1288C6.54642 18.9635 8.88756 20.125 11.5 20.125C14.1124 20.125 16.4535 18.9636 18.0352 17.129C16.8992 14.6553 14.4002 12.9375 11.4999 12.9375Z" fill="#787878"/>
</g>
<defs>
<filter id="filter0_i_1_260" x="0" y="0" width="23" height="24" filterUnits="userSpaceOnUse" color-interpolation-filters="sRGB">
<feFlood flood-opacity="0" result="BackgroundImageFix"/>
<feBlend mode="normal" in="SourceGraphic" in2="BackgroundImageFix" result="shape"/>
<feColorMatrix in="SourceAlpha" type="matrix" values="0 0 0 0 0 0 0 0 0 0 0 0 0 0 0 0 0 0 127 0" result="hardAlpha"/>
<feOffset dy="1"/>
<feGaussianBlur stdDeviation="2"/>
<feComposite in2="hardAlpha" operator="arithmetic" k2="-1" k3="1"/>
<feColorMatrix type="matrix" values="0 0 0 0 0 0 0 0 0 0 0 0 0 0 0 0 0 0 0.25 0"/>
<feBlend mode="normal" in2="shape" result="effect1_innerShadow_1_260"/>
</filter>
</defs>
</svg>
